<mxfile host="app.diagrams.net" modified="2023-11-03T13:07:24.485Z" agent="Mozilla/5.0 (X11; Linux x86_64; rv:109.0) Gecko/20100101 Firefox/119.0" etag="BsGgboD9A4t4c83RiQtP" version="22.0.8" type="device">
  <diagram name="Page-1" id="5udjnu8SRqorm139ejqs">
    <mxGraphModel dx="851" dy="503" grid="1" gridSize="10" guides="1" tooltips="1" connect="1" arrows="1" fold="1" page="1" pageScale="1" pageWidth="850" pageHeight="1100" math="0" shadow="0">
      <root>
        <mxCell id="0" />
        <mxCell id="1" parent="0" />
        <mxCell id="4w2omp_RsOo7fkGFhtTQ-23" value="&lt;div style=&quot;font-size: 18px;&quot;&gt;&lt;font color=&quot;#6600cc&quot;&gt;&lt;b&gt;Back-End&lt;/b&gt;&lt;/font&gt;&lt;/div&gt;&lt;div style=&quot;font-size: 18px;&quot;&gt;&lt;font color=&quot;#6600cc&quot;&gt;&lt;br&gt;&lt;/font&gt;&lt;/div&gt;&lt;div style=&quot;font-size: 18px;&quot;&gt;&lt;font color=&quot;#6600cc&quot;&gt;&lt;br&gt;&lt;/font&gt;&lt;/div&gt;&lt;div style=&quot;font-size: 18px;&quot;&gt;&lt;font color=&quot;#6600cc&quot;&gt;&lt;br&gt;&lt;/font&gt;&lt;/div&gt;&lt;div style=&quot;font-size: 18px;&quot;&gt;&lt;font color=&quot;#6600cc&quot;&gt;&lt;br&gt;&lt;/font&gt;&lt;/div&gt;&lt;div style=&quot;font-size: 18px;&quot;&gt;&lt;font color=&quot;#6600cc&quot;&gt;&lt;br style=&quot;font-size: 18px;&quot;&gt;&lt;/font&gt;&lt;/div&gt;" style="rounded=1;whiteSpace=wrap;html=1;fillColor=#E5CCFF;strokeColor=#6600CC;strokeWidth=2;labelBackgroundColor=none;fontStyle=0;fontSize=18;fontFamily=JetBrains Mono;fontSource=https%3A%2F%2Ffonts.googleapis.com%2Fcss%3Ffamily%3DJetBrains%2BMono;" vertex="1" parent="1">
          <mxGeometry x="222" y="289" width="240" height="131" as="geometry" />
        </mxCell>
        <mxCell id="4w2omp_RsOo7fkGFhtTQ-3" value="&lt;font color=&quot;#000000&quot;&gt;Processing logic&lt;/font&gt;" style="rounded=1;whiteSpace=wrap;html=1;fillColor=default;strokeColor=#EA6B66;strokeWidth=2;fontColor=#7AA116;labelBackgroundColor=none;fontStyle=0;fontSize=18;gradientColor=none;gradientDirection=radial;fontFamily=JetBrains Mono;fontSource=https%3A%2F%2Ffonts.googleapis.com%2Fcss%3Ffamily%3DJetBrains%2BMono;" vertex="1" parent="1">
          <mxGeometry x="294" y="351" width="158" height="59" as="geometry" />
        </mxCell>
        <mxCell id="4w2omp_RsOo7fkGFhtTQ-4" value="&lt;div style=&quot;font-size: 13px;&quot;&gt;&lt;font style=&quot;font-size: 16px;&quot;&gt;User&lt;/font&gt;&lt;/div&gt;" style="shape=umlActor;verticalLabelPosition=bottom;verticalAlign=top;html=1;outlineConnect=0;strokeColor=#007FFF;strokeWidth=3;fontFamily=JetBrains Mono;fontSource=https%3A%2F%2Ffonts.googleapis.com%2Fcss%3Ffamily%3DJetBrains%2BMono;" vertex="1" parent="1">
          <mxGeometry x="490" y="115" width="50" height="109" as="geometry" />
        </mxCell>
        <mxCell id="4w2omp_RsOo7fkGFhtTQ-5" value="" style="sketch=0;outlineConnect=0;fontColor=#232F3E;gradientColor=none;fillColor=#67AB9F;strokeColor=none;dashed=0;verticalLabelPosition=bottom;verticalAlign=top;align=center;html=1;fontSize=12;fontStyle=0;aspect=fixed;pointerEvents=1;shape=mxgraph.aws4.iot_thing_humidity_sensor;fontFamily=JetBrains Mono;fontSource=https%3A%2F%2Ffonts.googleapis.com%2Fcss%3Ffamily%3DJetBrains%2BMono;" vertex="1" parent="1">
          <mxGeometry x="382.5" y="503" width="60" height="60" as="geometry" />
        </mxCell>
        <mxCell id="4w2omp_RsOo7fkGFhtTQ-6" value="" style="sketch=0;outlineConnect=0;fontColor=#232F3E;gradientColor=none;fillColor=#67AB9F;strokeColor=none;dashed=0;verticalLabelPosition=bottom;verticalAlign=top;align=center;html=1;fontSize=12;fontStyle=0;aspect=fixed;pointerEvents=1;shape=mxgraph.aws4.iot_thing_temperature_sensor;fontFamily=JetBrains Mono;fontSource=https%3A%2F%2Ffonts.googleapis.com%2Fcss%3Ffamily%3DJetBrains%2BMono;" vertex="1" parent="1">
          <mxGeometry x="250" y="503" width="60" height="60" as="geometry" />
        </mxCell>
        <mxCell id="4w2omp_RsOo7fkGFhtTQ-7" value="" style="sketch=0;outlineConnect=0;fontColor=#232F3E;gradientColor=none;fillColor=#67AB9F;strokeColor=none;dashed=0;verticalLabelPosition=bottom;verticalAlign=top;align=center;html=1;fontSize=12;fontStyle=0;aspect=fixed;pointerEvents=1;shape=mxgraph.aws4.iot_thing_vibration_sensor;fontFamily=JetBrains Mono;fontSource=https%3A%2F%2Ffonts.googleapis.com%2Fcss%3Ffamily%3DJetBrains%2BMono;" vertex="1" parent="1">
          <mxGeometry x="250" y="568" width="60" height="60" as="geometry" />
        </mxCell>
        <mxCell id="4w2omp_RsOo7fkGFhtTQ-10" value="" style="sketch=0;outlineConnect=0;fontColor=#232F3E;gradientColor=none;fillColor=#67AB9F;strokeColor=none;dashed=0;verticalLabelPosition=bottom;verticalAlign=top;align=center;html=1;fontSize=12;fontStyle=0;aspect=fixed;pointerEvents=1;shape=mxgraph.aws4.camera;fontFamily=JetBrains Mono;fontSource=https%3A%2F%2Ffonts.googleapis.com%2Fcss%3Ffamily%3DJetBrains%2BMono;" vertex="1" parent="1">
          <mxGeometry x="317" y="568" width="60" height="60" as="geometry" />
        </mxCell>
        <mxCell id="4w2omp_RsOo7fkGFhtTQ-11" value="" style="sketch=0;outlineConnect=0;fontColor=#232F3E;gradientColor=none;fillColor=#EA6B66;strokeColor=none;dashed=0;verticalLabelPosition=bottom;verticalAlign=top;align=center;html=1;fontSize=12;fontStyle=0;aspect=fixed;pointerEvents=1;shape=mxgraph.aws4.door_lock;fontFamily=JetBrains Mono;fontSource=https%3A%2F%2Ffonts.googleapis.com%2Fcss%3Ffamily%3DJetBrains%2BMono;" vertex="1" parent="1">
          <mxGeometry x="540" y="330" width="60" height="60" as="geometry" />
        </mxCell>
        <mxCell id="4w2omp_RsOo7fkGFhtTQ-12" value="" style="sketch=0;outlineConnect=0;fontColor=#232F3E;gradientColor=none;fillColor=#EA6B66;strokeColor=none;dashed=0;verticalLabelPosition=bottom;verticalAlign=top;align=center;html=1;fontSize=12;fontStyle=0;aspect=fixed;pointerEvents=1;shape=mxgraph.aws4.lightbulb;fontFamily=JetBrains Mono;fontSource=https%3A%2F%2Ffonts.googleapis.com%2Fcss%3Ffamily%3DJetBrains%2BMono;" vertex="1" parent="1">
          <mxGeometry x="540" y="260" width="60" height="60" as="geometry" />
        </mxCell>
        <mxCell id="4w2omp_RsOo7fkGFhtTQ-13" value="" style="sketch=0;outlineConnect=0;fontColor=#232F3E;gradientColor=none;fillColor=#EA6B66;strokeColor=none;dashed=0;verticalLabelPosition=bottom;verticalAlign=top;align=center;html=1;fontSize=12;fontStyle=0;aspect=fixed;pointerEvents=1;shape=mxgraph.aws4.thermostat;fontFamily=JetBrains Mono;fontSource=https%3A%2F%2Ffonts.googleapis.com%2Fcss%3Ffamily%3DJetBrains%2BMono;" vertex="1" parent="1">
          <mxGeometry x="610" y="330" width="60" height="60" as="geometry" />
        </mxCell>
        <mxCell id="4w2omp_RsOo7fkGFhtTQ-14" value="" style="sketch=0;outlineConnect=0;fontColor=#232F3E;gradientColor=none;fillColor=#EA6B66;strokeColor=none;dashed=0;verticalLabelPosition=bottom;verticalAlign=top;align=center;html=1;fontSize=12;fontStyle=0;aspect=fixed;pointerEvents=1;shape=mxgraph.aws4.utility;fontFamily=JetBrains Mono;fontSource=https%3A%2F%2Ffonts.googleapis.com%2Fcss%3Ffamily%3DJetBrains%2BMono;" vertex="1" parent="1">
          <mxGeometry x="610" y="400" width="60" height="60" as="geometry" />
        </mxCell>
        <mxCell id="4w2omp_RsOo7fkGFhtTQ-15" value="" style="sketch=0;outlineConnect=0;fontColor=#232F3E;gradientColor=none;fillColor=#EA6B66;strokeColor=none;dashed=0;verticalLabelPosition=bottom;verticalAlign=top;align=center;html=1;fontSize=12;fontStyle=0;aspect=fixed;pointerEvents=1;shape=mxgraph.aws4.generic;fontFamily=JetBrains Mono;fontSource=https%3A%2F%2Ffonts.googleapis.com%2Fcss%3Ffamily%3DJetBrains%2BMono;" vertex="1" parent="1">
          <mxGeometry x="540" y="400" width="60" height="60" as="geometry" />
        </mxCell>
        <mxCell id="4w2omp_RsOo7fkGFhtTQ-16" value="" style="sketch=0;outlineConnect=0;fontColor=#232F3E;gradientColor=none;fillColor=#7AA116;strokeColor=none;dashed=0;verticalLabelPosition=bottom;verticalAlign=top;align=center;html=1;fontSize=12;fontStyle=0;aspect=fixed;pointerEvents=1;shape=mxgraph.aws4.iot_analytics_data_store;fontFamily=JetBrains Mono;fontSource=https%3A%2F%2Ffonts.googleapis.com%2Fcss%3Ffamily%3DJetBrains%2BMono;" vertex="1" parent="1">
          <mxGeometry x="80" y="303" width="72" height="104" as="geometry" />
        </mxCell>
        <mxCell id="4w2omp_RsOo7fkGFhtTQ-19" value="" style="verticalLabelPosition=bottom;html=1;verticalAlign=top;align=center;strokeColor=none;fillColor=#67AB9F;shape=mxgraph.azure.queue_generic;pointerEvents=1;rotation=-90;fontFamily=JetBrains Mono;fontSource=https%3A%2F%2Ffonts.googleapis.com%2Fcss%3Ffamily%3DJetBrains%2BMono;" vertex="1" parent="1">
          <mxGeometry x="284.5" y="470" width="125" height="40" as="geometry" />
        </mxCell>
        <mxCell id="4w2omp_RsOo7fkGFhtTQ-24" value="&lt;div style=&quot;font-size: 16px;&quot;&gt;&lt;font style=&quot;font-size: 16px;&quot;&gt;Message&lt;/font&gt;&lt;/div&gt;&lt;div style=&quot;font-size: 16px;&quot;&gt;&lt;font style=&quot;font-size: 16px;&quot;&gt;Queues&lt;/font&gt;&lt;/div&gt;" style="text;html=1;align=center;verticalAlign=middle;resizable=0;points=[];autosize=1;strokeColor=none;fillColor=none;fontFamily=JetBrains Mono;fontSource=https%3A%2F%2Ffonts.googleapis.com%2Fcss%3Ffamily%3DJetBrains%2BMono;" vertex="1" parent="1">
          <mxGeometry x="246" y="440" width="80" height="50" as="geometry" />
        </mxCell>
        <mxCell id="4w2omp_RsOo7fkGFhtTQ-26" value="&lt;div style=&quot;font-size: 16px;&quot;&gt;Data Sources&lt;br style=&quot;font-size: 16px;&quot;&gt;&lt;/div&gt;" style="text;html=1;align=center;verticalAlign=middle;resizable=0;points=[];autosize=1;strokeColor=none;fillColor=none;fontSize=16;fontFamily=JetBrains Mono;fontSource=https%3A%2F%2Ffonts.googleapis.com%2Fcss%3Ffamily%3DJetBrains%2BMono;" vertex="1" parent="1">
          <mxGeometry x="287" y="627" width="120" height="30" as="geometry" />
        </mxCell>
        <mxCell id="4w2omp_RsOo7fkGFhtTQ-27" value="&lt;font color=&quot;#000000&quot;&gt;REST API&lt;/font&gt;" style="rounded=1;whiteSpace=wrap;html=1;fillColor=default;strokeColor=#007FFF;strokeWidth=2;fontColor=#7AA116;labelBackgroundColor=none;fontStyle=0;fontSize=18;fontFamily=JetBrains Mono;fontSource=https%3A%2F%2Ffonts.googleapis.com%2Fcss%3Ffamily%3DJetBrains%2BMono;" vertex="1" parent="1">
          <mxGeometry x="294" y="310" width="158" height="39" as="geometry" />
        </mxCell>
        <mxCell id="4w2omp_RsOo7fkGFhtTQ-28" value="&lt;div&gt;&lt;font color=&quot;#000000&quot;&gt;Data&lt;/font&gt;&lt;/div&gt;&lt;div&gt;&lt;font color=&quot;#000000&quot;&gt;Layer&lt;/font&gt;&lt;/div&gt;" style="rounded=1;whiteSpace=wrap;html=1;fillColor=default;strokeColor=#7aa116;strokeWidth=2;fontColor=#7AA116;labelBackgroundColor=none;fontStyle=0;fontSize=18;fontFamily=JetBrains Mono;fontSource=https%3A%2F%2Ffonts.googleapis.com%2Fcss%3Ffamily%3DJetBrains%2BMono;" vertex="1" parent="1">
          <mxGeometry x="232" y="310" width="60" height="100" as="geometry" />
        </mxCell>
        <mxCell id="4w2omp_RsOo7fkGFhtTQ-29" value="" style="shape=flexArrow;endArrow=classic;startArrow=classic;html=1;rounded=0;fontColor=#7AA116;strokeColor=#7AA116;strokeWidth=2;startWidth=13.88888888888889;startSize=5.481111111111111;endWidth=13.88888888888889;endSize=5.481111111111111;fontFamily=JetBrains Mono;fontSource=https%3A%2F%2Ffonts.googleapis.com%2Fcss%3Ffamily%3DJetBrains%2BMono;" edge="1" parent="1">
          <mxGeometry width="100" height="100" relative="1" as="geometry">
            <mxPoint x="156" y="355" as="sourcePoint" />
            <mxPoint x="216" y="355" as="targetPoint" />
          </mxGeometry>
        </mxCell>
        <mxCell id="4w2omp_RsOo7fkGFhtTQ-33" value="Output Devices" style="text;html=1;align=center;verticalAlign=middle;resizable=0;points=[];autosize=1;strokeColor=none;fillColor=none;fontSize=16;fontFamily=JetBrains Mono;fontSource=https%3A%2F%2Ffonts.googleapis.com%2Fcss%3Ffamily%3DJetBrains%2BMono;" vertex="1" parent="1">
          <mxGeometry x="540" y="460" width="130" height="30" as="geometry" />
        </mxCell>
        <mxCell id="4w2omp_RsOo7fkGFhtTQ-34" value="" style="sketch=0;outlineConnect=0;fontColor=#232F3E;gradientColor=none;fillColor=#EA6B66;strokeColor=none;dashed=0;verticalLabelPosition=bottom;verticalAlign=top;align=center;html=1;fontSize=12;fontStyle=0;aspect=fixed;pointerEvents=1;shape=mxgraph.aws4.lightbulb;fontFamily=JetBrains Mono;fontSource=https%3A%2F%2Ffonts.googleapis.com%2Fcss%3Ffamily%3DJetBrains%2BMono;" vertex="1" parent="1">
          <mxGeometry x="610" y="260" width="60" height="60" as="geometry" />
        </mxCell>
        <mxCell id="4w2omp_RsOo7fkGFhtTQ-35" value="" style="whiteSpace=wrap;html=1;strokeColor=none;fillColor=#FFFFFF;fontFamily=JetBrains Mono;fontSource=https%3A%2F%2Ffonts.googleapis.com%2Fcss%3Ffamily%3DJetBrains%2BMono;" vertex="1" parent="1">
          <mxGeometry x="620" y="270" width="40" height="40" as="geometry" />
        </mxCell>
        <mxCell id="4w2omp_RsOo7fkGFhtTQ-39" value="" style="html=1;verticalLabelPosition=bottom;align=center;labelBackgroundColor=#ffffff;verticalAlign=top;strokeWidth=2;strokeColor=#EA6B66;shadow=0;dashed=0;shape=mxgraph.ios7.icons.note;pointerEvents=1;fillColor=#EA6B66;fontFamily=JetBrains Mono;fontSource=https%3A%2F%2Ffonts.googleapis.com%2Fcss%3Ffamily%3DJetBrains%2BMono;" vertex="1" parent="1">
          <mxGeometry x="625" y="275" width="29.7" height="29.7" as="geometry" />
        </mxCell>
        <mxCell id="4w2omp_RsOo7fkGFhtTQ-40" value="" style="shape=flexArrow;endArrow=classic;startArrow=none;html=1;rounded=0;fontColor=#7AA116;strokeColor=#EA6B66;strokeWidth=2;startWidth=13.88888888888889;startSize=5.481111111111111;endWidth=13.88888888888889;endSize=5.481111111111111;startFill=0;fontFamily=JetBrains Mono;fontSource=https%3A%2F%2Ffonts.googleapis.com%2Fcss%3Ffamily%3DJetBrains%2BMono;" edge="1" parent="1">
          <mxGeometry width="100" height="100" relative="1" as="geometry">
            <mxPoint x="470" y="354.89" as="sourcePoint" />
            <mxPoint x="530" y="354.89" as="targetPoint" />
          </mxGeometry>
        </mxCell>
        <mxCell id="4w2omp_RsOo7fkGFhtTQ-42" value="&lt;div style=&quot;font-size: 18px;&quot;&gt;&lt;font color=&quot;#007fff&quot;&gt;&lt;b&gt;Front-End&lt;/b&gt;&lt;/font&gt;&lt;/div&gt;&lt;div style=&quot;font-size: 18px;&quot;&gt;&lt;font color=&quot;#007fff&quot;&gt;&lt;br&gt;&lt;/font&gt;&lt;/div&gt;&lt;div style=&quot;font-size: 18px;&quot;&gt;&lt;font color=&quot;#007fff&quot;&gt;&lt;br&gt;&lt;/font&gt;&lt;/div&gt;&lt;div style=&quot;font-size: 18px;&quot;&gt;&lt;font color=&quot;#007fff&quot;&gt;&lt;br&gt;&lt;/font&gt;&lt;/div&gt;&lt;div style=&quot;font-size: 18px;&quot;&gt;&lt;font color=&quot;#007fff&quot;&gt;&lt;br&gt;&lt;/font&gt;&lt;/div&gt;" style="rounded=1;whiteSpace=wrap;html=1;fillColor=#dae8fc;strokeColor=#007FFF;strokeWidth=2;labelBackgroundColor=none;fontStyle=0;fontSize=18;fontFamily=JetBrains Mono;fontSource=https%3A%2F%2Ffonts.googleapis.com%2Fcss%3Ffamily%3DJetBrains%2BMono;" vertex="1" parent="1">
          <mxGeometry x="260" y="112" width="180" height="112" as="geometry" />
        </mxCell>
        <mxCell id="4w2omp_RsOo7fkGFhtTQ-43" value="&lt;font color=&quot;#000000&quot;&gt;Mobile App&lt;/font&gt;&amp;nbsp;&amp;nbsp; " style="rounded=1;whiteSpace=wrap;html=1;fillColor=default;strokeColor=#007FFF;strokeWidth=2;fontColor=#7AA116;labelBackgroundColor=none;fontStyle=0;fontSize=18;fontFamily=JetBrains Mono;fontSource=https%3A%2F%2Ffonts.googleapis.com%2Fcss%3Ffamily%3DJetBrains%2BMono;" vertex="1" parent="1">
          <mxGeometry x="270" y="174" width="160" height="40" as="geometry" />
        </mxCell>
        <mxCell id="4w2omp_RsOo7fkGFhtTQ-44" value="&lt;font color=&quot;#000000&quot;&gt;Web App&lt;/font&gt;" style="rounded=1;whiteSpace=wrap;html=1;fillColor=default;strokeColor=#007FFF;strokeWidth=2;fontColor=#7AA116;labelBackgroundColor=none;fontStyle=0;fontSize=18;fontFamily=JetBrains Mono;fontSource=https%3A%2F%2Ffonts.googleapis.com%2Fcss%3Ffamily%3DJetBrains%2BMono;" vertex="1" parent="1">
          <mxGeometry x="270" y="134" width="160" height="40" as="geometry" />
        </mxCell>
        <mxCell id="4w2omp_RsOo7fkGFhtTQ-46" value="" style="shape=flexArrow;endArrow=classic;startArrow=classic;html=1;rounded=0;fontColor=#7AA116;strokeColor=#007FFF;strokeWidth=2;startWidth=13.88888888888889;startSize=5.481111111111111;endWidth=13.88888888888889;endSize=5.481111111111111;fontFamily=JetBrains Mono;fontSource=https%3A%2F%2Ffonts.googleapis.com%2Fcss%3Ffamily%3DJetBrains%2BMono;" edge="1" parent="1">
          <mxGeometry width="100" height="100" relative="1" as="geometry">
            <mxPoint x="349.81" y="285" as="sourcePoint" />
            <mxPoint x="349.81" y="230" as="targetPoint" />
          </mxGeometry>
        </mxCell>
        <mxCell id="4w2omp_RsOo7fkGFhtTQ-56" value="" style="shape=image;verticalLabelPosition=bottom;labelBackgroundColor=default;verticalAlign=top;aspect=fixed;imageAspect=0;image=data:image/png,iVBORw0KGgoAAAANSUhEUgAAA0MAAAG1CAIAAAC09riVAAAA0GVYSWZJSSoACAAAAAoAAAEEAAEAAABDAwAAAQEEAAEAAAC1AQAAAgEDAAMAAACGAAAAEgEDAAEAAAABAAAAGgEFAAEAAACMAAAAGwEFAAEAAACUAAAAKAEDAAEAAAADAAAAMQECAA0AAACcAAAAMgECABQAAACqAAAAaYcEAAEAAAC+AAAAAAAAAAgACAAIAL0AAAAFAAAAvQAAAAUAAABHSU1QIDIuMTAuMzQAADIwMjM6MTE6MDMgMTI6NDg6NDcAAQABoAMAAQAAAAEAAAAAAAAArmFLLAAAAYRpQ0NQSUNDIHByb2ZpbGUAAHicfZE9SMNAHMVfU0XRioMdVBwyVCcLoiKOtQpFqBBqhVYdTC79giYNSYqLo+BacPBjserg4qyrg6sgCH6AuLo4KbpIif9LCi1iPDjux7t7j7t3gFAvM83qiAGabpupRFzMZFfFrlf0IogQJjAkM8uYk6QkfMfXPQJ8vYvyLP9zf44+NWcxICASx5hh2sQbxDObtsF5nzjMirJKfE48btIFiR+5rnj8xrngssAzw2Y6NU8cJhYLbay0MSuaGvE0cUTVdMoXMh6rnLc4a+Uqa96TvzCU01eWuU5zBAksYgkSRCioooQybERp1UmxkKL9uI9/2PVL5FLIVQIjxwIq0CC7fvA/+N2tlZ+a9JJCcaDzxXE+RoGuXaBRc5zvY8dpnADBZ+BKb/krdWD2k/RaS4scAf3bwMV1S1P2gMsdYPDJkE3ZlYI0hXweeD+jb8oCA7dAz5rXW3Mfpw9AmrpK3gAHh8BYgbLXfd7d3d7bv2ea/f0AknVys4K0rIkAAA14aVRYdFhNTDpjb20uYWRvYmUueG1wAAAAAAA8P3hwYWNrZXQgYmVnaW49Iu+7vyIgaWQ9Ilc1TTBNcENlaGlIenJlU3pOVGN6a2M5ZCI/Pgo8eDp4bXBtZXRhIHhtbG5zOng9ImFkb2JlOm5zOm1ldGEvIiB4OnhtcHRrPSJYTVAgQ29yZSA0LjQuMC1FeGl2MiI+CiA8cmRmOlJERiB4bWxuczpyZGY9Imh0dHA6Ly93d3cudzMub3JnLzE5OTkvMDIvMjItcmRmLXN5bnRheC1ucyMiPgogIDxyZGY6RGVzY3JpcHRpb24gcmRmOmFib3V0PSIiCiAgICB4bWxuczp4bXBNTT0iaHR0cDovL25zLmFkb2JlLmNvbS94YXAvMS4wL21tLyIKICAgIHhtbG5zOnN0RXZ0PSJodHRwOi8vbnMuYWRvYmUuY29tL3hhcC8xLjAvc1R5cGUvUmVzb3VyY2VFdmVudCMiCiAgICB4bWxuczpkYz0iaHR0cDovL3B1cmwub3JnL2RjL2VsZW1lbnRzLzEuMS8iCiAgICB4bWxuczpHSU1QPSJodHRwOi8vd3d3LmdpbXAub3JnL3htcC8iCiAgICB4bWxuczp0aWZmPSJodHRwOi8vbnMuYWRvYmUuY29tL3RpZmYvMS4wLyIKICAgIHhtbG5zOnhtcD0iaHR0cDovL25zLmFkb2JlLmNvbS94YXAvMS4wLyIKICAgeG1wTU06RG9jdW1lbnRJRD0iZ2ltcDpkb2NpZDpnaW1wOjgwYzJhZDQyLTJiNTYtNDBiYS05NWNmLTUwODMwNGNmMTBiYiIKICAgeG1wTU06SW5zdGFuY2VJRD0ieG1wLmlpZDo2NjVkZTk1MC0zNDhjLTQ1MGMtOTA2MS0zMjY4MmQwOTE5MjIiCiAgIHhtcE1NOk9yaWdpbmFsRG9jdW1lbnRJRD0ieG1wLmRpZDpmYmI0ODBhYS0zNjJiLTQwMjMtOWZlNC1hZTVlYjc5M2ZhZWYiCiAgIGRjOkZvcm1hdD0iaW1hZ2UvcG5nIgogICBHSU1QOkFQST0iMi4wIgogICBHSU1QOlBsYXRmb3JtPSJMaW51eCIKICAgR0lNUDpUaW1lU3RhbXA9IjE2OTkwMTU3Mjc5NTI3NjAiCiAgIEdJTVA6VmVyc2lvbj0iMi4xMC4zNCIKICAgdGlmZjpPcmllbnRhdGlvbj0iMSIKICAgeG1wOkNyZWF0b3JUb29sPSJHSU1QIDIuMTAiCiAgIHhtcDpNZXRhZGF0YURhdGU9IjIwMjM6MTE6MDNUMTI6NDg6NDcrMDA6MDAiCiAgIHhtcDpNb2RpZnlEYXRlPSIyMDIzOjExOjAzVDEyOjQ4OjQ3KzAwOjAwIj4KICAgPHhtcE1NOkhpc3Rvcnk+CiAgICA8cmRmOlNlcT4KICAgICA8cmRmOmxpCiAgICAgIHN0RXZ0OmFjdGlvbj0ic2F2ZWQiCiAgICAgIHN0RXZ0OmNoYW5nZWQ9Ii8iCiAgICAgIHN0RXZ0Omluc3RhbmNlSUQ9InhtcC5paWQ6ZjdjZmU0MTgtOTMwOC00YzQ4LTg5NjAtMzM3ODgzZjU1ZjZmIgogICAgICBzdEV2dDpzb2Z0d2FyZUFnZW50PSJHaW1wIDIuMTAgKExpbnV4KSIKICAgICAgc3RFdnQ6d2hlbj0iMjAyMy0xMS0wM1QxMjo0ODo0NyswMDowMCIvPgogICAgPC9yZGY6U2VxPgogICA8L3htcE1NOkhpc3Rvcnk+CiAgPC9yZGY6RGVzY3JpcHRpb24+CiA8L3JkZjpSREY+CjwveDp4bXBtZXRhPgogICAgICAgICAgICAgICAgICAgICAgICAgICAgICAgICAgICAgICAgICAgICAgICAgICAgICAgICAgICAgICAgICAgICAgICAgICAgICAgICAgICAgICAgICAgICAgICAgICAgCiAgICAgICAgICAgICAgICAgICAgICAgICAgICAgICAgICAgICAgICAgICAgICAgICAgICAgICAgICAgICAgICAgICAgICAgICAgICAgICAgICAgICAgICAgICAgICAgICAgICAKICAgICAgICAgICAgICAgICAgICAgICAgICAgICAgICAgICAgICAgICAgICAgICAgICAgICAgICAgICAgICAgICAgICAgICAgICAgICAgICAgICAgICAgICAgICAgICAgICAgIAogICAgICAgICAgICAgICAgICAgICAgICAgICAgICAgICAgICAgICAgICAgICAgICAgICAgICAgICAgICAgICAgICAgICAgICAgICAgICAgICAgICAgICAgICAgICAgICAgICAgCiAgICAgICAgICAgICAgICAgICAgICAgICAgICAgICAgICAgICAgICAgICAgICAgICAgICAgICAgICAgICAgICAgICAgICAgICAgICAgICAgICAgICAgICAgICAgICAgICAgICAKICAgICAgICAgICAgICAgICAgICAgICAgICAgICAgICAgICAgICAgICAgICAgICAgICAgICAgICAgICAgICAgICAgICAgICAgICAgICAgICAgICAgICAgICAgICAgICAgICAgIAogICAgICAgICAgICAgICAgICAgICAgICAgICAgICAgICAgICAgICAgICAgICAgICAgICAgICAgICAgICAgICAgICAgICAgICAgICAgICAgICAgICAgICAgICAgICAgICAgICAgCiAgICAgICAgICAgICAgICAgICAgICAgICAgICAgICAgICAgICAgICAgICAgICAgICAgICAgICAgICAgICAgICAgICAgICAgICAgICAgICAgICAgICAgICAgICAgICAgICAgICAKICAgICAgICAgICAgICAgICAgICAgICAgICAgICAgICAgICAgICAgICAgICAgICAgICAgICAgICAgICAgICAgICAgICAgICAgICAgICAgICAgICAgICAgICAgICAgICAgICAgIAogICAgICAgICAgICAgICAgICAgICAgICAgICAgICAgICAgICAgICAgICAgICAgICAgICAgICAgICAgICAgICAgICAgICAgICAgICAgICAgICAgICAgICAgICAgICAgICAgICAgCiAgICAgICAgICAgICAgICAgICAgICAgICAgICAgICAgICAgICAgICAgICAgICAgICAgICAgICAgICAgICAgICAgICAgICAgICAgICAgICAgICAgICAgICAgICAgICAgICAgICAKICAgICAgICAgICAgICAgICAgICAgICAgICAgICAgICAgICAgICAgICAgICAgICAgICAgICAgICAgICAgICAgICAgICAgICAgICAgICAgICAgICAgICAgICAgICAgICAgICAgIAogICAgICAgICAgICAgICAgICAgICAgICAgICAgICAgICAgICAgICAgICAgICAgICAgICAgICAgICAgICAgICAgICAgICAgICAgICAgICAgICAgICAgICAgICAgICAgICAgICAgCiAgICAgICAgICAgICAgICAgICAgICAgICAgICAgICAgICAgICAgICAgICAgICAgICAgICAgICAgICAgICAgICAgICAgICAgICAgICAgICAgICAgICAgICAgICAgICAgICAgICAKICAgICAgICAgICAgICAgICAgICAgICAgICAgICAgICAgICAgICAgICAgICAgICAgICAgICAgICAgICAgICAgICAgICAgICAgICAgICAgICAgICAgICAgICAgICAgICAgICAgIAogICAgICAgICAgICAgICAgICAgICAgICAgICAgICAgICAgICAgICAgICAgICAgICAgICAgICAgICAgICAgICAgICAgICAgICAgICAgICAgICAgICAgICAgICAgICAgICAgICAgCiAgICAgICAgICAgICAgICAgICAgICAgICAgICAgICAgICAgICAgICAgICAgICAgICAgICAgICAgICAgICAgICAgICAgICAgICAgICAgICAgICAgICAgICAgICAgICAgICAgICAKICAgICAgICAgICAgICAgICAgICAgICAgICAgICAgICAgICAgICAgICAgICAgICAgICAgICAgICAgICAgICAgICAgICAgICAgICAgICAgICAgICAgICAgICAgICAgICAgICAgIAogICAgICAgICAgICAgICAgICAgICAgICAgICAgICAgICAgICAgICAgICAgICAgICAgICAgICAgICAgICAgICAgICAgICAgICAgICAgICAgICAgICAgICAgICAgICAgICAgICAgCiAgICAgICAgICAgICAgICAgICAgICAgICAgICAgICAgICAgICAgICAgICAgICAgICAgICAgICAgICAgICAgICAgICAgICAgICAgICAgICAgICAgICAgICAgICAgICAgICAgICAKICAgICAgICAgICAgICAgICAgICAgICAgICAgCjw/eHBhY2tldCBlbmQ9InciPz4/3D9dAAAABmJLR0QAAAAAAAD5Q7t/AAAACXBIWXMAAA7EAAAOxAGVKw4bAAAAB3RJTUUH5wsDDDAv333tqwAAEgxJREFUeNrt3WtwXOV9wOF3pSPLK1uyJdlGxgj5FhJijB2akBJbCZOGQAGHISEzMMw4aZsU2rQTc8kkFGeq6bhDCQNpSpPSTIdLmmmTDk0LNpQM7bQJQ1MgBJdbSTD4hkG+SbJkayV7pe0HKDWaUuRWZ3Xes88zfJHB7+75v7vSjz27R4VKpRIAAMi8crmcJMnxf1JnKAAAkVJyAABKDgAAJQcAwGQkE74ujfY33dRqLgAAWfNX5/70inN/+fg/8ZocAECslBwAgJIDAEDJAQCg5AAAlBwAAEoOAAAlBwCg5AAAUHIAACg5AACUHACAkgMAQMkBAKDkAACUHAAASg4AACUHAICSAwBQcgAAKDkAAJQcAICSAwBAyQEAoOQAAFByAABKDgAAJQcAgJIDAFByAAAoOQAAlBwAAEoOAEDJAQCg5AAAUHIAAEoOAAAlBwCAkgMAQMkBACg5AACUHAAASg4AQMkBAKDkAABQcgAAKDkAACUHAICSAwBAyQEAKDkAAJQcAABKDgAAJQcAoOQAAMiCJOp7f/HcIVsYi1K5PoRQTMaMIjf6RhvaGo+ZQ548Njjrgy1HzMGTtNZsGWhWctPg9Iby5g3NHn+xKJfLIYQkSYwiP3VeKhWLnoO50tvb29HRYQ6epLVmz8F/P+X2VZHeeWdXAQBipeQAAJQcAABKDgAAJQcAoOQAAFByAAAoOQAAJQcAgJIDAEDJAQCg5AAAlBwAAEoOAAAlBwCg5AAAUHIAACg5AACUHACAkgMAQMkBAKDkAACUHAAASg4AACUHAICSAwBQcgAAKDkAAJQcAICSAwBAyQEAoOQAAFByAABKDgAAJQcAgJIDAFByAAAoOQAAlBwAAEoOAEDJAQCg5AAAUHIAAEoOAAAlBwCAkgMAQMkBACg5AACUHAAASg4AQMkBAKDkAABQcgAAKDkAACUHAICSAwBAyQEA1J6kXC4f//WEL7NseLwQ0b3FZuVyT21rzoyPj9vTPBkbG7OhkxxULHd1cLg4YU+9JgcAEKskSZK3fD2WxHLXm+oqE+48UTzgDCFX3z5saL7U1dXZ0zypr6+3oZMcVCx3taWpNGFPvSYHABDt/1QbQVxe6n1kw/dWT/my3/lcX+vsrhzP7bp79vyiv2Vq1/yVZbs2rFsxhQtuffner95/fkRT7RttaGscyt+j5RuXP720Y80J/ZWDgy9/9s75OTj2xwYXfLAl4j1dNb9v05VT+a3smR33/d7ffzTegQweTa7p/vEZiyutszrbW5b6Gfp2CoWCkqNKrrz77MdGGqf+R/Lhrfkuudu2L5ryNbc8uWLDuqlc8H3fuSy+yZZm5vDh8r0zN284sb9xYOjlLQM5+TG5ZaA56ju/aUoXPPPuS2Lf0B//8MMT/mTTim1Xfnj/ye2rZiRNfqq+2XJKDgCIwMbnlm98bvmbXz58yUNrz/jQzIaW2p5KJd677n1yAFC7zrvvguIfthR6wrM7N5fHRmp1DF6TAwBitvKuN94v8tLVjy7p+FAh5rg5UZXKeLx33mtyAMB/W3bHmrqewvO7HjQKJQcARGnFnRcWesLLvY/WwsEWChHnkJIDAP5ny+5YU+gJr/U9m+/DdHYVAMitk//kjEJPGBzuzesBRn09OSUHALyzOV/r+NEzD+Ty0CoVVyEBAPLu3L+9qNATSqP9OTsur8kBALWi6abWvqEdeToir8kBADWk/dbFu/Y/YQ5KDgCIUtc3P/DMzvvNQckBAFE6865PrL15xByUHAAQpUdLMws90R+FKwMDALUr9phzZWAAoKZdd88eQ1ByAECUbtu+6IVXfmgOSg4AiNLpf3H+wJHd5qDkAIAotd7SWR4fNQclBwBEqeEPGg1ByQEAsXrx1X8xhKpJjAAAqmbTim1XdO9NY+WRo4d275/xD0+vuH3nwum9qMZp3z536Cv7Z8+cH8umRH09OSUHWfHU+nu/ev/5GbxjWwaa01i2LoQL5w5l8Hi/cfnTIaw5ob8yr3npxZk8lpT2LoSQzeNdNb8vhK6MP9Ov6O5d2rE2pcXfe2o4/5fCH//Xl32HXn114MlVd62rftg1/9H8So/v60oOasnqpZdt3pDJ/1tN59vxvuu2tzcvyeRWrDnRv9DesjSbe7dj70+W/Nk5U77s4vqxzRuaM7l3zdl/pldCpWq3VZzRekbXurGeUKmMP7frgZV3ravmke7c93jXgrOj+PbrysAAQHYVCnVndK2r9IRdX/hp1W508bfOHhs/ZvhKDgByFFWhMI233jn//ZWesPt3fladm/vzh16IpXSVHADwzqp5dvXtnDLvrCM39FXhhr7w+Mry2EgEm+LsKgAwGdP7mtybmhrbqvOJhC/efSiCTfGaHAAQnUpPeFcylupNfGv3SaPHDhu1kgMApt4vNtZf2jqY6k38/vf7zVnJAUAeZOF9chP84Istqa5/87bO8Uo505vifXIAwGRk5H1yE1OmJ931n9lxX6Y3xfvkAICo9X/plfQWX33Pp0xYyQFA9DJ4dvV1c2ed8jcfezS99Q8Obc/upji7CgDE7tNr16S3+OfvbM/sgRcKhXh3TckBAG945Xe3prTy3/W3ZPaoK5VKvFum5ACANyxqX53e4r39z5uwkgMAUrT/2m0prXzL/XOyecjOrgIAOTGvZXlKK9+2fVE2D9nZVQAgP5779QdTWvloedh4lRwAxCqbVwae4L2nXpjSytv3/msWN8WVgQGAycjs9eSq4zN/2Z3FTXE9OQAgT37++X9KY9nHRhrNVskBAOlaunBtSiuPjR8zXiUHAKQoqUvrxbP9h17M2sG6CgkAkDe/tvBAGsvuHXgha0fqKiQAQN5svOTnaSx71fcvMlslBwCkq3P+WWks60MPSg4AYhXF9eRe11BfrJVNcT05AGAyavx6chndFNeTAwDyZ01xJI1lD4/sN1slBwCk6/ZPb05j2YHDr5itkgOA+ET0PrkQQnvz4jSWPTT8arY2xfvkAIDJiOt9ck2NbWks++Ke5mxtivfJAQD5Myudknv4+XebrZIDANJVbGxNY9kHX51ntkoOAOIT1/vkUrJjrD5bm+J9cgDAZLieXBY3xfvkAABQcgAAKDkAACUHAEwVn3jI4qb4xAMAMBk+8ZDFTfGJBwAAlBwAAEoOALLH++SyuCneJwcATIb3yWVxU7xPDgDQnZPUVpCzSg4AIhTX2dWR0YE0lv3I3KFsbYqzqwDAZMR1dnVoZF8ay1619vFsbYqzqwBA/gwc3pPGsks65IeSAwBS9uDPTkpj2TmzFpqtkgMA0nXNkyvSKblFZqvkAIAozWxoMQQlBwDxcWXgLG6Kz64CAJMR0WdXB47srpVN8dlVACBndu57Io1lf3PRPrNVcgBAulbf88k0lr3uwmfNVskBAFE6dcH7DUHJAQAp2jvwQkor++CqkgMA0nXNdzsMQckBAFH66wNz01j2tzv3ZvBgC4WILw2j5ACAt9i1/4mUVr7x0ix+cLVSqcS7WUoOAHiLrm9+IKWVT25babxKDgBilf3f8XBk5EDNbYrf8QAATEb2f8dD+83zUlr5qfX3ZnRT/I4HACAHBodfG00tNd/T+XETnnKJEUS2YYVUnmHL7+j2YAOogoyfXZ3ztYXpLZ7ZK8k5u0r1lCsFQwCIV5bPru45uDW9xbd+5gfZ3RRnVwGAqI1Xxk65fXV6669c/AlDVnIAELfMnl39+n0vprd4c6FSV8jue2ycXQUAJiWbZ1dfOfDU9Vvfk97626/dkelNcXYVAIjUoSN7Ov/0faneRHvzkixPwG/rAgAmFw0ZO7taGu2fe8uiVG/ixat+FMG2KDkA4B1l6uxqabS/6abWtG9l+cKPZH1TnF0FAOIyOPxaFTIuhhfknF0FAKLy3K4HUr0I8Juy/4JcCKFSqcS7lS67DwDVM+3vkxs4srv1ls4QLqrCbW27+pEQuiPYlJivQqLkAKAmjBwbPPfWxsdGOqt2i8s6uo1dyQFAfkzLJx4ODm2fd+uSEKr6a0+Hb+gPoTWOTYn5Ew9KDgCqp2pnVw8MvrR739NnfffSEEII1b6c29Ofva/YeEk0m+LsKgAwGcvuWHvx3KEpX7Y8XvePg7PKb72pEJZN12GuXHyJvVZyAJBDWwaa832Ag1/eF8KCqO5yxJ9ddRUSAGDKbP+tnzQX48q4uK9CouQAgKlx47t2Lj7pHHNQcgBAfDZd2WUISg4AiM/RjcOGoOQAgPj0Xb+rIWkyByUHAMSXca2zTzUHJQcAyDhOgOvJxbZhhbQ+KZ3GlSqPVyrXhxCKydi0zC33V28CkHFKjgiUK6n8mpdtVz+S9u85LpfLIYQkmZ6HXKHHYwdgig18ac+cWTJOyQEAsTm6cbghWWQO08775ACAE3DFvIFKT/BJ1YzwmhwAMFnP/8ZDp3dekLODKhQK8d55JQcATMqRGw42NV6Qv+OK+veuKjkA4B288LmH333KeSG0G4WSAwBiUrpxcGbDeTk+QGdXAYAc6rt+Z+vsrhBa8n2Yzq4CALmy/9pt81qWh9BlFEoOAIjDl5fvvuGT9XOaTg5huWkoOQAgAusX9H19/VDb7K4QOmvw8AuFiC+vq+QAoEY9tf7e0xZ9tKmxLYTX/6lRlcq4kgMAsm79gr5rf/Wf58857eS2lSGEEC4zk+A1OQBgkjat2HZF9940o6TQUD+zISnOSJrGynUts9tmJLOO+/dtIXzKLuSJkgOA6rm8+7WlHd3Vua1SqTQjKZr5O4r67Gqd/QMAUHIAACg5AACUHACAkgMAQMkBAKDkAACUHAAASg4AACUHAICSAwBQcgAAKDkAAJQcAICSAwBAyQEAoOQAAFByAABKDgAAJQcAgJIDAFByAAAoOQAAlBwAAP+rpFQqHf/1yNGRWO76wbG6CXe+Fhwsz0hj2dHR0bSHOTY2FkKor6+fpskV01i0Zh6BqUxvZGSklNTcU7jKRkdHU/lGNF7nwZ/l77dpPwA8U6bR3v7mCY+fpFh868O0LpqSa68fn3jna0B7MrqtPPUx1NjYmPYwy+VyCCFJklx9j6+9R+AUmjlzpgGmrbGxMZVvRHXj9i7L3299mzrhTRlujOWuntQ6NGFPnV0FAIiVkgMAUHIAACg5AACUHACAkgMAQMkBAKDkAACUHAAASg4AACUHAICSAwBQcgAAKDkAAJQcAICSAwBAyQEAoOQAAFByAABKDgAAJQcAgJIDAFByAAAoOQAAlBwAAEoOAEDJAQCg5AAAUHIAAEoOAAAlBwCAkgMAQMkBACg5AACUHAAASg4AQMkBAKDkAABQcgAAKDkAACUHAICSAwBAyQEAKDkAAJQcAABKDgAAJQcAoOQAAFByAAAoOQAAJQcAgJIDACBtiRHE5d++0pjOwt35nlulx2Nn6qdXKpWKxeL/Y+ElZpu2xSedc0IP/t7e3o6Ojkn8h/U1/uD3/Zbs8JocAICSAwBAyQEAoOQAAJQcAABKDgAAJQcAoOQAAFByAAAoOQAAlBwAgJIDAEDJAQCg5AAAlBwAAEoOAAAlBwCAkgMAUHIAACg5AACUHACAkgMAQMkBAKDkAABQcgAASg4AACUHAICSAwBQcgAAKDkAAJQcAABKDgBAyQEAoOQAAFByAABKDgAAJQcAgJIDAEDJAQAoOQAAlBwAAEoOAEDJAQCg5AAAUHIAALydJN67/h/HkkKPHfRgYxoVjSB3OozAk7QmrYr3rntNDgBAyQEAoOQAAFByAABKDgAAJQcAgJIDAFByAAAoOQAAlBwAAEoOAEDJAQCg5AAAUHIAAEoOAAAlBwCAkgMAQMkBACg5AACUHAAASg4AQMkBAKDkAABQcgAAKDkAACUHAICSAwBAyQEAKDkAAJQcAABKDgAAJQcAoOQAAFByAAAoOQAAJQcAgJIDAEDJAQCg5AAAlBwAAEoOAAAlBwCg5AAAUHIAACg5AACUHACAkgMAQMkBAKDkAACUHAAASg4AACUHAICSAwBQcgAAKDkAAP7vkt7e3uO/Lo+PfGx2w/Tep31HZ7xWTkqVQrFQsUO5Ua4UQgiJPc0RT9L82T9eN79u3Bw8ScnsT9LTOw5PKLdCpZLRPS6VSsVi0bbl5/FXLocQkiQxivz8kPAkzZ3e3t6Ojg5z8CQlop+kzq4CAMRKyQEAKDkAAKrrPwEwM4DQ4hLZGQAAAABJRU5ErkJggg==;fontFamily=JetBrains Mono;fontSource=https%3A%2F%2Ffonts.googleapis.com%2Fcss%3Ffamily%3DJetBrains%2BMono;" vertex="1" parent="1">
          <mxGeometry x="419" y="330" width="30" height="15.7" as="geometry" />
        </mxCell>
        <mxCell id="4w2omp_RsOo7fkGFhtTQ-57" value="" style="shape=image;verticalLabelPosition=bottom;labelBackgroundColor=default;verticalAlign=top;aspect=fixed;imageAspect=0;image=data:image/png,iVBORw0KGgoAAAANSUhEUgAAA0MAAAG1CAIAAAC09riVAAAA0GVYSWZJSSoACAAAAAoAAAEEAAEAAABDAwAAAQEEAAEAAAC1AQAAAgEDAAMAAACGAAAAEgEDAAEAAAABAAAAGgEFAAEAAACMAAAAGwEFAAEAAACUAAAAKAEDAAEAAAADAAAAMQECAA0AAACcAAAAMgECABQAAACqAAAAaYcEAAEAAAC+AAAAAAAAAAgACAAIAL0AAAAFAAAAvQAAAAUAAABHSU1QIDIuMTAuMzQAADIwMjM6MTE6MDMgMTI6NDg6NDcAAQABoAMAAQAAAAEAAAAAAAAArmFLLAAAAYRpQ0NQSUNDIHByb2ZpbGUAAHicfZE9SMNAHMVfU0XRioMdVBwyVCcLoiKOtQpFqBBqhVYdTC79giYNSYqLo+BacPBjserg4qyrg6sgCH6AuLo4KbpIif9LCi1iPDjux7t7j7t3gFAvM83qiAGabpupRFzMZFfFrlf0IogQJjAkM8uYk6QkfMfXPQJ8vYvyLP9zf44+NWcxICASx5hh2sQbxDObtsF5nzjMirJKfE48btIFiR+5rnj8xrngssAzw2Y6NU8cJhYLbay0MSuaGvE0cUTVdMoXMh6rnLc4a+Uqa96TvzCU01eWuU5zBAksYgkSRCioooQybERp1UmxkKL9uI9/2PVL5FLIVQIjxwIq0CC7fvA/+N2tlZ+a9JJCcaDzxXE+RoGuXaBRc5zvY8dpnADBZ+BKb/krdWD2k/RaS4scAf3bwMV1S1P2gMsdYPDJkE3ZlYI0hXweeD+jb8oCA7dAz5rXW3Mfpw9AmrpK3gAHh8BYgbLXfd7d3d7bv2ea/f0AknVys4K0rIkAAA14aVRYdFhNTDpjb20uYWRvYmUueG1wAAAAAAA8P3hwYWNrZXQgYmVnaW49Iu+7vyIgaWQ9Ilc1TTBNcENlaGlIenJlU3pOVGN6a2M5ZCI/Pgo8eDp4bXBtZXRhIHhtbG5zOng9ImFkb2JlOm5zOm1ldGEvIiB4OnhtcHRrPSJYTVAgQ29yZSA0LjQuMC1FeGl2MiI+CiA8cmRmOlJERiB4bWxuczpyZGY9Imh0dHA6Ly93d3cudzMub3JnLzE5OTkvMDIvMjItcmRmLXN5bnRheC1ucyMiPgogIDxyZGY6RGVzY3JpcHRpb24gcmRmOmFib3V0PSIiCiAgICB4bWxuczp4bXBNTT0iaHR0cDovL25zLmFkb2JlLmNvbS94YXAvMS4wL21tLyIKICAgIHhtbG5zOnN0RXZ0PSJodHRwOi8vbnMuYWRvYmUuY29tL3hhcC8xLjAvc1R5cGUvUmVzb3VyY2VFdmVudCMiCiAgICB4bWxuczpkYz0iaHR0cDovL3B1cmwub3JnL2RjL2VsZW1lbnRzLzEuMS8iCiAgICB4bWxuczpHSU1QPSJodHRwOi8vd3d3LmdpbXAub3JnL3htcC8iCiAgICB4bWxuczp0aWZmPSJodHRwOi8vbnMuYWRvYmUuY29tL3RpZmYvMS4wLyIKICAgIHhtbG5zOnhtcD0iaHR0cDovL25zLmFkb2JlLmNvbS94YXAvMS4wLyIKICAgeG1wTU06RG9jdW1lbnRJRD0iZ2ltcDpkb2NpZDpnaW1wOjgwYzJhZDQyLTJiNTYtNDBiYS05NWNmLTUwODMwNGNmMTBiYiIKICAgeG1wTU06SW5zdGFuY2VJRD0ieG1wLmlpZDo2NjVkZTk1MC0zNDhjLTQ1MGMtOTA2MS0zMjY4MmQwOTE5MjIiCiAgIHhtcE1NOk9yaWdpbmFsRG9jdW1lbnRJRD0ieG1wLmRpZDpmYmI0ODBhYS0zNjJiLTQwMjMtOWZlNC1hZTVlYjc5M2ZhZWYiCiAgIGRjOkZvcm1hdD0iaW1hZ2UvcG5nIgogICBHSU1QOkFQST0iMi4wIgogICBHSU1QOlBsYXRmb3JtPSJMaW51eCIKICAgR0lNUDpUaW1lU3RhbXA9IjE2OTkwMTU3Mjc5NTI3NjAiCiAgIEdJTVA6VmVyc2lvbj0iMi4xMC4zNCIKICAgdGlmZjpPcmllbnRhdGlvbj0iMSIKICAgeG1wOkNyZWF0b3JUb29sPSJHSU1QIDIuMTAiCiAgIHhtcDpNZXRhZGF0YURhdGU9IjIwMjM6MTE6MDNUMTI6NDg6NDcrMDA6MDAiCiAgIHhtcDpNb2RpZnlEYXRlPSIyMDIzOjExOjAzVDEyOjQ4OjQ3KzAwOjAwIj4KICAgPHhtcE1NOkhpc3Rvcnk+CiAgICA8cmRmOlNlcT4KICAgICA8cmRmOmxpCiAgICAgIHN0RXZ0OmFjdGlvbj0ic2F2ZWQiCiAgICAgIHN0RXZ0OmNoYW5nZWQ9Ii8iCiAgICAgIHN0RXZ0Omluc3RhbmNlSUQ9InhtcC5paWQ6ZjdjZmU0MTgtOTMwOC00YzQ4LTg5NjAtMzM3ODgzZjU1ZjZmIgogICAgICBzdEV2dDpzb2Z0d2FyZUFnZW50PSJHaW1wIDIuMTAgKExpbnV4KSIKICAgICAgc3RFdnQ6d2hlbj0iMjAyMy0xMS0wM1QxMjo0ODo0NyswMDowMCIvPgogICAgPC9yZGY6U2VxPgogICA8L3htcE1NOkhpc3Rvcnk+CiAgPC9yZGY6RGVzY3JpcHRpb24+CiA8L3JkZjpSREY+CjwveDp4bXBtZXRhPgogICAgICAgICAgICAgICAgICAgICAgICAgICAgICAgICAgICAgICAgICAgICAgICAgICAgICAgICAgICAgICAgICAgICAgICAgICAgICAgICAgICAgICAgICAgICAgICAgICAgCiAgICAgICAgICAgICAgICAgICAgICAgICAgICAgICAgICAgICAgICAgICAgICAgICAgICAgICAgICAgICAgICAgICAgICAgICAgICAgICAgICAgICAgICAgICAgICAgICAgICAKICAgICAgICAgICAgICAgICAgICAgICAgICAgICAgICAgICAgICAgICAgICAgICAgICAgICAgICAgICAgICAgICAgICAgICAgICAgICAgICAgICAgICAgICAgICAgICAgICAgIAogICAgICAgICAgICAgICAgICAgICAgICAgICAgICAgICAgICAgICAgICAgICAgICAgICAgICAgICAgICAgICAgICAgICAgICAgICAgICAgICAgICAgICAgICAgICAgICAgICAgCiAgICAgICAgICAgICAgICAgICAgICAgICAgICAgICAgICAgICAgICAgICAgICAgICAgICAgICAgICAgICAgICAgICAgICAgICAgICAgICAgICAgICAgICAgICAgICAgICAgICAKICAgICAgICAgICAgICAgICAgICAgICAgICAgICAgICAgICAgICAgICAgICAgICAgICAgICAgICAgICAgICAgICAgICAgICAgICAgICAgICAgICAgICAgICAgICAgICAgICAgIAogICAgICAgICAgICAgICAgICAgICAgICAgICAgICAgICAgICAgICAgICAgICAgICAgICAgICAgICAgICAgICAgICAgICAgICAgICAgICAgICAgICAgICAgICAgICAgICAgICAgCiAgICAgICAgICAgICAgICAgICAgICAgICAgICAgICAgICAgICAgICAgICAgICAgICAgICAgICAgICAgICAgICAgICAgICAgICAgICAgICAgICAgICAgICAgICAgICAgICAgICAKICAgICAgICAgICAgICAgICAgICAgICAgICAgICAgICAgICAgICAgICAgICAgICAgICAgICAgICAgICAgICAgICAgICAgICAgICAgICAgICAgICAgICAgICAgICAgICAgICAgIAogICAgICAgICAgICAgICAgICAgICAgICAgICAgICAgICAgICAgICAgICAgICAgICAgICAgICAgICAgICAgICAgICAgICAgICAgICAgICAgICAgICAgICAgICAgICAgICAgICAgCiAgICAgICAgICAgICAgICAgICAgICAgICAgICAgICAgICAgICAgICAgICAgICAgICAgICAgICAgICAgICAgICAgICAgICAgICAgICAgICAgICAgICAgICAgICAgICAgICAgICAKICAgICAgICAgICAgICAgICAgICAgICAgICAgICAgICAgICAgICAgICAgICAgICAgICAgICAgICAgICAgICAgICAgICAgICAgICAgICAgICAgICAgICAgICAgICAgICAgICAgIAogICAgICAgICAgICAgICAgICAgICAgICAgICAgICAgICAgICAgICAgICAgICAgICAgICAgICAgICAgICAgICAgICAgICAgICAgICAgICAgICAgICAgICAgICAgICAgICAgICAgCiAgICAgICAgICAgICAgICAgICAgICAgICAgICAgICAgICAgICAgICAgICAgICAgICAgICAgICAgICAgICAgICAgICAgICAgICAgICAgICAgICAgICAgICAgICAgICAgICAgICAKICAgICAgICAgICAgICAgICAgICAgICAgICAgICAgICAgICAgICAgICAgICAgICAgICAgICAgICAgICAgICAgICAgICAgICAgICAgICAgICAgICAgICAgICAgICAgICAgICAgIAogICAgICAgICAgICAgICAgICAgICAgICAgICAgICAgICAgICAgICAgICAgICAgICAgICAgICAgICAgICAgICAgICAgICAgICAgICAgICAgICAgICAgICAgICAgICAgICAgICAgCiAgICAgICAgICAgICAgICAgICAgICAgICAgICAgICAgICAgICAgICAgICAgICAgICAgICAgICAgICAgICAgICAgICAgICAgICAgICAgICAgICAgICAgICAgICAgICAgICAgICAKICAgICAgICAgICAgICAgICAgICAgICAgICAgICAgICAgICAgICAgICAgICAgICAgICAgICAgICAgICAgICAgICAgICAgICAgICAgICAgICAgICAgICAgICAgICAgICAgICAgIAogICAgICAgICAgICAgICAgICAgICAgICAgICAgICAgICAgICAgICAgICAgICAgICAgICAgICAgICAgICAgICAgICAgICAgICAgICAgICAgICAgICAgICAgICAgICAgICAgICAgCiAgICAgICAgICAgICAgICAgICAgICAgICAgICAgICAgICAgICAgICAgICAgICAgICAgICAgICAgICAgICAgICAgICAgICAgICAgICAgICAgICAgICAgICAgICAgICAgICAgICAKICAgICAgICAgICAgICAgICAgICAgICAgICAgCjw/eHBhY2tldCBlbmQ9InciPz4/3D9dAAAABmJLR0QAAAAAAAD5Q7t/AAAACXBIWXMAAA7EAAAOxAGVKw4bAAAAB3RJTUUH5wsDDDAv333tqwAAEgxJREFUeNrt3WtwXOV9wOF3pSPLK1uyJdlGxgj5FhJijB2akBJbCZOGQAGHISEzMMw4aZsU2rQTc8kkFGeq6bhDCQNpSpPSTIdLmmmTDk0LNpQM7bQJQ1MgBJdbSTD4hkG+SbJkayV7pe0HKDWaUuRWZ3Xes88zfJHB7+75v7vSjz27R4VKpRIAAMi8crmcJMnxf1JnKAAAkVJyAABKDgAAJQcAwGQkE74ujfY33dRqLgAAWfNX5/70inN/+fg/8ZocAECslBwAgJIDAEDJAQCg5AAAlBwAAEoOAAAlBwCg5AAAUHIAACg5AACUHACAkgMAQMkBAKDkAACUHAAASg4AACUHAICSAwBQcgAAKDkAAJQcAICSAwBAyQEAoOQAAFByAABKDgAAJQcAgJIDAFByAAAoOQAAlBwAAEoOAEDJAQCg5AAAUHIAAEoOAAAlBwCAkgMAQMkBACg5AACUHAAASg4AQMkBAKDkAABQcgAAKDkAACUHAICSAwBAyQEAKDkAAJQcAABKDgAAJQcAoOQAAMiCJOp7f/HcIVsYi1K5PoRQTMaMIjf6RhvaGo+ZQ548Njjrgy1HzMGTtNZsGWhWctPg9Iby5g3NHn+xKJfLIYQkSYwiP3VeKhWLnoO50tvb29HRYQ6epLVmz8F/P+X2VZHeeWdXAQBipeQAAJQcAABKDgAAJQcAoOQAAFByAAAoOQAAJQcAgJIDAEDJAQCg5AAAlBwAAEoOAAAlBwCg5AAAUHIAACg5AACUHACAkgMAQMkBAKDkAACUHAAASg4AACUHAICSAwBQcgAAKDkAAJQcAICSAwBAyQEAoOQAAFByAABKDgAAJQcAgJIDAFByAAAoOQAAlBwAAEoOAEDJAQCg5AAAUHIAAEoOAAAlBwCAkgMAQMkBACg5AACUHAAASg4AQMkBAKDkAABQcgAAKDkAACUHAICSAwBAyQEA1J6kXC4f//WEL7NseLwQ0b3FZuVyT21rzoyPj9vTPBkbG7OhkxxULHd1cLg4YU+9JgcAEKskSZK3fD2WxHLXm+oqE+48UTzgDCFX3z5saL7U1dXZ0zypr6+3oZMcVCx3taWpNGFPvSYHABDt/1QbQVxe6n1kw/dWT/my3/lcX+vsrhzP7bp79vyiv2Vq1/yVZbs2rFsxhQtuffner95/fkRT7RttaGscyt+j5RuXP720Y80J/ZWDgy9/9s75OTj2xwYXfLAl4j1dNb9v05VT+a3smR33/d7ffzTegQweTa7p/vEZiyutszrbW5b6Gfp2CoWCkqNKrrz77MdGGqf+R/Lhrfkuudu2L5ryNbc8uWLDuqlc8H3fuSy+yZZm5vDh8r0zN284sb9xYOjlLQM5+TG5ZaA56ju/aUoXPPPuS2Lf0B//8MMT/mTTim1Xfnj/ye2rZiRNfqq+2XJKDgCIwMbnlm98bvmbXz58yUNrz/jQzIaW2p5KJd677n1yAFC7zrvvguIfthR6wrM7N5fHRmp1DF6TAwBitvKuN94v8tLVjy7p+FAh5rg5UZXKeLx33mtyAMB/W3bHmrqewvO7HjQKJQcARGnFnRcWesLLvY/WwsEWChHnkJIDAP5ny+5YU+gJr/U9m+/DdHYVAMitk//kjEJPGBzuzesBRn09OSUHALyzOV/r+NEzD+Ty0CoVVyEBAPLu3L+9qNATSqP9OTsur8kBALWi6abWvqEdeToir8kBADWk/dbFu/Y/YQ5KDgCIUtc3P/DMzvvNQckBAFE6865PrL15xByUHAAQpUdLMws90R+FKwMDALUr9phzZWAAoKZdd88eQ1ByAECUbtu+6IVXfmgOSg4AiNLpf3H+wJHd5qDkAIAotd7SWR4fNQclBwBEqeEPGg1ByQEAsXrx1X8xhKpJjAAAqmbTim1XdO9NY+WRo4d275/xD0+vuH3nwum9qMZp3z536Cv7Z8+cH8umRH09OSUHWfHU+nu/ev/5GbxjWwaa01i2LoQL5w5l8Hi/cfnTIaw5ob8yr3npxZk8lpT2LoSQzeNdNb8vhK6MP9Ov6O5d2rE2pcXfe2o4/5fCH//Xl32HXn114MlVd62rftg1/9H8So/v60oOasnqpZdt3pDJ/1tN59vxvuu2tzcvyeRWrDnRv9DesjSbe7dj70+W/Nk5U77s4vqxzRuaM7l3zdl/pldCpWq3VZzRekbXurGeUKmMP7frgZV3ravmke7c93jXgrOj+PbrysAAQHYVCnVndK2r9IRdX/hp1W508bfOHhs/ZvhKDgByFFWhMI233jn//ZWesPt3fladm/vzh16IpXSVHADwzqp5dvXtnDLvrCM39FXhhr7w+Mry2EgEm+LsKgAwGdP7mtybmhrbqvOJhC/efSiCTfGaHAAQnUpPeFcylupNfGv3SaPHDhu1kgMApt4vNtZf2jqY6k38/vf7zVnJAUAeZOF9chP84Istqa5/87bO8Uo505vifXIAwGRk5H1yE1OmJ931n9lxX6Y3xfvkAICo9X/plfQWX33Pp0xYyQFA9DJ4dvV1c2ed8jcfezS99Q8Obc/upji7CgDE7tNr16S3+OfvbM/sgRcKhXh3TckBAG945Xe3prTy3/W3ZPaoK5VKvFum5ACANyxqX53e4r39z5uwkgMAUrT/2m0prXzL/XOyecjOrgIAOTGvZXlKK9+2fVE2D9nZVQAgP5779QdTWvloedh4lRwAxCqbVwae4L2nXpjSytv3/msWN8WVgQGAycjs9eSq4zN/2Z3FTXE9OQAgT37++X9KY9nHRhrNVskBAOlaunBtSiuPjR8zXiUHAKQoqUvrxbP9h17M2sG6CgkAkDe/tvBAGsvuHXgha0fqKiQAQN5svOTnaSx71fcvMlslBwCkq3P+WWks60MPSg4AYhXF9eRe11BfrJVNcT05AGAyavx6chndFNeTAwDyZ01xJI1lD4/sN1slBwCk6/ZPb05j2YHDr5itkgOA+ET0PrkQQnvz4jSWPTT8arY2xfvkAIDJiOt9ck2NbWks++Ke5mxtivfJAQD5Myudknv4+XebrZIDANJVbGxNY9kHX51ntkoOAOIT1/vkUrJjrD5bm+J9cgDAZLieXBY3xfvkAABQcgAAKDkAACUHAEwVn3jI4qb4xAMAMBk+8ZDFTfGJBwAAlBwAAEoOALLH++SyuCneJwcATIb3yWVxU7xPDgDQnZPUVpCzSg4AIhTX2dWR0YE0lv3I3KFsbYqzqwDAZMR1dnVoZF8ay1619vFsbYqzqwBA/gwc3pPGsks65IeSAwBS9uDPTkpj2TmzFpqtkgMA0nXNkyvSKblFZqvkAIAozWxoMQQlBwDxcWXgLG6Kz64CAJMR0WdXB47srpVN8dlVACBndu57Io1lf3PRPrNVcgBAulbf88k0lr3uwmfNVskBAFE6dcH7DUHJAQAp2jvwQkor++CqkgMA0nXNdzsMQckBAFH66wNz01j2tzv3ZvBgC4WILw2j5ACAt9i1/4mUVr7x0ix+cLVSqcS7WUoOAHiLrm9+IKWVT25babxKDgBilf3f8XBk5EDNbYrf8QAATEb2f8dD+83zUlr5qfX3ZnRT/I4HACAHBodfG00tNd/T+XETnnKJEUS2YYVUnmHL7+j2YAOogoyfXZ3ztYXpLZ7ZK8k5u0r1lCsFQwCIV5bPru45uDW9xbd+5gfZ3RRnVwGAqI1Xxk65fXV6669c/AlDVnIAELfMnl39+n0vprd4c6FSV8jue2ycXQUAJiWbZ1dfOfDU9Vvfk97626/dkelNcXYVAIjUoSN7Ov/0faneRHvzkixPwG/rAgAmFw0ZO7taGu2fe8uiVG/ixat+FMG2KDkA4B1l6uxqabS/6abWtG9l+cKPZH1TnF0FAOIyOPxaFTIuhhfknF0FAKLy3K4HUr0I8Juy/4JcCKFSqcS7lS67DwDVM+3vkxs4srv1ls4QLqrCbW27+pEQuiPYlJivQqLkAKAmjBwbPPfWxsdGOqt2i8s6uo1dyQFAfkzLJx4ODm2fd+uSEKr6a0+Hb+gPoTWOTYn5Ew9KDgCqp2pnVw8MvrR739NnfffSEEII1b6c29Ofva/YeEk0m+LsKgAwGcvuWHvx3KEpX7Y8XvePg7PKb72pEJZN12GuXHyJvVZyAJBDWwaa832Ag1/eF8KCqO5yxJ9ddRUSAGDKbP+tnzQX48q4uK9CouQAgKlx47t2Lj7pHHNQcgBAfDZd2WUISg4AiM/RjcOGoOQAgPj0Xb+rIWkyByUHAMSXca2zTzUHJQcAyDhOgOvJxbZhhbQ+KZ3GlSqPVyrXhxCKydi0zC33V28CkHFKjgiUK6n8mpdtVz+S9u85LpfLIYQkmZ6HXKHHYwdgig18ac+cWTJOyQEAsTm6cbghWWQO08775ACAE3DFvIFKT/BJ1YzwmhwAMFnP/8ZDp3dekLODKhQK8d55JQcATMqRGw42NV6Qv+OK+veuKjkA4B288LmH333KeSG0G4WSAwBiUrpxcGbDeTk+QGdXAYAc6rt+Z+vsrhBa8n2Yzq4CALmy/9pt81qWh9BlFEoOAIjDl5fvvuGT9XOaTg5huWkoOQAgAusX9H19/VDb7K4QOmvw8AuFiC+vq+QAoEY9tf7e0xZ9tKmxLYTX/6lRlcq4kgMAsm79gr5rf/Wf58857eS2lSGEEC4zk+A1OQBgkjat2HZF9940o6TQUD+zISnOSJrGynUts9tmJLOO+/dtIXzKLuSJkgOA6rm8+7WlHd3Vua1SqTQjKZr5O4r67Gqd/QMAUHIAACg5AACUHACAkgMAQMkBAKDkAACUHAAASg4AACUHAICSAwBQcgAAKDkAAJQcAICSAwBAyQEAoOQAAFByAABKDgAAJQcAgJIDAFByAAAoOQAAlBwAAP+rpFQqHf/1yNGRWO76wbG6CXe+Fhwsz0hj2dHR0bSHOTY2FkKor6+fpskV01i0Zh6BqUxvZGSklNTcU7jKRkdHU/lGNF7nwZ/l77dpPwA8U6bR3v7mCY+fpFh868O0LpqSa68fn3jna0B7MrqtPPUx1NjYmPYwy+VyCCFJklx9j6+9R+AUmjlzpgGmrbGxMZVvRHXj9i7L3299mzrhTRlujOWuntQ6NGFPnV0FAIiVkgMAUHIAACg5AACUHACAkgMAQMkBAKDkAACUHAAASg4AACUHAICSAwBQcgAAKDkAAJQcAICSAwBAyQEAoOQAAFByAABKDgAAJQcAgJIDAFByAAAoOQAAlBwAAEoOAEDJAQCg5AAAUHIAAEoOAAAlBwCAkgMAQMkBACg5AACUHAAASg4AQMkBAKDkAABQcgAAKDkAACUHAICSAwBAyQEAKDkAAJQcAABKDgAAJQcAoOQAAFByAAAoOQAAJQcAgJIDACBtiRHE5d++0pjOwt35nlulx2Nn6qdXKpWKxeL/Y+ElZpu2xSedc0IP/t7e3o6Ojkn8h/U1/uD3/Zbs8JocAICSAwBAyQEAoOQAAJQcAABKDgAAJQcAoOQAAFByAAAoOQAAlBwAgJIDAEDJAQCg5AAAlBwAAEoOAAAlBwCAkgMAUHIAACg5AACUHACAkgMAQMkBAKDkAABQcgAASg4AACUHAICSAwBQcgAAKDkAAJQcAABKDgBAyQEAoOQAAFByAABKDgAAJQcAgJIDAEDJAQAoOQAAlBwAAEoOAEDJAQCg5AAAUHIAALydJN67/h/HkkKPHfRgYxoVjSB3OozAk7QmrYr3rntNDgBAyQEAoOQAAFByAABKDgAAJQcAgJIDAFByAAAoOQAAlBwAAEoOAEDJAQCg5AAAUHIAAEoOAAAlBwCAkgMAQMkBACg5AACUHAAASg4AQMkBAKDkAABQcgAAKDkAACUHAICSAwBAyQEAKDkAAJQcAABKDgAAJQcAoOQAAFByAAAoOQAAJQcAgJIDAEDJAQCg5AAAlBwAAEoOAAAlBwCg5AAAUHIAACg5AACUHACAkgMAQMkBAKDkAACUHAAASg4AACUHAICSAwBQcgAAKDkAAP7vkt7e3uO/Lo+PfGx2w/Tep31HZ7xWTkqVQrFQsUO5Ua4UQgiJPc0RT9L82T9eN79u3Bw8ScnsT9LTOw5PKLdCpZLRPS6VSsVi0bbl5/FXLocQkiQxivz8kPAkzZ3e3t6Ojg5z8CQlop+kzq4CAMRKyQEAKDkAAKrrPwEwM4DQ4hLZGQAAAABJRU5ErkJggg==;fontFamily=JetBrains Mono;fontSource=https%3A%2F%2Ffonts.googleapis.com%2Fcss%3Ffamily%3DJetBrains%2BMono;" vertex="1" parent="1">
          <mxGeometry x="397" y="195.3" width="30" height="15.7" as="geometry" />
        </mxCell>
        <mxCell id="4w2omp_RsOo7fkGFhtTQ-58" value="" style="shape=image;verticalLabelPosition=bottom;labelBackgroundColor=default;verticalAlign=top;aspect=fixed;imageAspect=0;image=data:image/png,iVBORw0KGgoAAAANSUhEUgAAA0MAAAG1CAIAAAC09riVAAAA0GVYSWZJSSoACAAAAAoAAAEEAAEAAABDAwAAAQEEAAEAAAC1AQAAAgEDAAMAAACGAAAAEgEDAAEAAAABAAAAGgEFAAEAAACMAAAAGwEFAAEAAACUAAAAKAEDAAEAAAADAAAAMQECAA0AAACcAAAAMgECABQAAACqAAAAaYcEAAEAAAC+AAAAAAAAAAgACAAIAL0AAAAFAAAAvQAAAAUAAABHSU1QIDIuMTAuMzQAADIwMjM6MTE6MDMgMTI6NDg6NDcAAQABoAMAAQAAAAEAAAAAAAAArmFLLAAAAYRpQ0NQSUNDIHByb2ZpbGUAAHicfZE9SMNAHMVfU0XRioMdVBwyVCcLoiKOtQpFqBBqhVYdTC79giYNSYqLo+BacPBjserg4qyrg6sgCH6AuLo4KbpIif9LCi1iPDjux7t7j7t3gFAvM83qiAGabpupRFzMZFfFrlf0IogQJjAkM8uYk6QkfMfXPQJ8vYvyLP9zf44+NWcxICASx5hh2sQbxDObtsF5nzjMirJKfE48btIFiR+5rnj8xrngssAzw2Y6NU8cJhYLbay0MSuaGvE0cUTVdMoXMh6rnLc4a+Uqa96TvzCU01eWuU5zBAksYgkSRCioooQybERp1UmxkKL9uI9/2PVL5FLIVQIjxwIq0CC7fvA/+N2tlZ+a9JJCcaDzxXE+RoGuXaBRc5zvY8dpnADBZ+BKb/krdWD2k/RaS4scAf3bwMV1S1P2gMsdYPDJkE3ZlYI0hXweeD+jb8oCA7dAz5rXW3Mfpw9AmrpK3gAHh8BYgbLXfd7d3d7bv2ea/f0AknVys4K0rIkAAA14aVRYdFhNTDpjb20uYWRvYmUueG1wAAAAAAA8P3hwYWNrZXQgYmVnaW49Iu+7vyIgaWQ9Ilc1TTBNcENlaGlIenJlU3pOVGN6a2M5ZCI/Pgo8eDp4bXBtZXRhIHhtbG5zOng9ImFkb2JlOm5zOm1ldGEvIiB4OnhtcHRrPSJYTVAgQ29yZSA0LjQuMC1FeGl2MiI+CiA8cmRmOlJERiB4bWxuczpyZGY9Imh0dHA6Ly93d3cudzMub3JnLzE5OTkvMDIvMjItcmRmLXN5bnRheC1ucyMiPgogIDxyZGY6RGVzY3JpcHRpb24gcmRmOmFib3V0PSIiCiAgICB4bWxuczp4bXBNTT0iaHR0cDovL25zLmFkb2JlLmNvbS94YXAvMS4wL21tLyIKICAgIHhtbG5zOnN0RXZ0PSJodHRwOi8vbnMuYWRvYmUuY29tL3hhcC8xLjAvc1R5cGUvUmVzb3VyY2VFdmVudCMiCiAgICB4bWxuczpkYz0iaHR0cDovL3B1cmwub3JnL2RjL2VsZW1lbnRzLzEuMS8iCiAgICB4bWxuczpHSU1QPSJodHRwOi8vd3d3LmdpbXAub3JnL3htcC8iCiAgICB4bWxuczp0aWZmPSJodHRwOi8vbnMuYWRvYmUuY29tL3RpZmYvMS4wLyIKICAgIHhtbG5zOnhtcD0iaHR0cDovL25zLmFkb2JlLmNvbS94YXAvMS4wLyIKICAgeG1wTU06RG9jdW1lbnRJRD0iZ2ltcDpkb2NpZDpnaW1wOjgwYzJhZDQyLTJiNTYtNDBiYS05NWNmLTUwODMwNGNmMTBiYiIKICAgeG1wTU06SW5zdGFuY2VJRD0ieG1wLmlpZDo2NjVkZTk1MC0zNDhjLTQ1MGMtOTA2MS0zMjY4MmQwOTE5MjIiCiAgIHhtcE1NOk9yaWdpbmFsRG9jdW1lbnRJRD0ieG1wLmRpZDpmYmI0ODBhYS0zNjJiLTQwMjMtOWZlNC1hZTVlYjc5M2ZhZWYiCiAgIGRjOkZvcm1hdD0iaW1hZ2UvcG5nIgogICBHSU1QOkFQST0iMi4wIgogICBHSU1QOlBsYXRmb3JtPSJMaW51eCIKICAgR0lNUDpUaW1lU3RhbXA9IjE2OTkwMTU3Mjc5NTI3NjAiCiAgIEdJTVA6VmVyc2lvbj0iMi4xMC4zNCIKICAgdGlmZjpPcmllbnRhdGlvbj0iMSIKICAgeG1wOkNyZWF0b3JUb29sPSJHSU1QIDIuMTAiCiAgIHhtcDpNZXRhZGF0YURhdGU9IjIwMjM6MTE6MDNUMTI6NDg6NDcrMDA6MDAiCiAgIHhtcDpNb2RpZnlEYXRlPSIyMDIzOjExOjAzVDEyOjQ4OjQ3KzAwOjAwIj4KICAgPHhtcE1NOkhpc3Rvcnk+CiAgICA8cmRmOlNlcT4KICAgICA8cmRmOmxpCiAgICAgIHN0RXZ0OmFjdGlvbj0ic2F2ZWQiCiAgICAgIHN0RXZ0OmNoYW5nZWQ9Ii8iCiAgICAgIHN0RXZ0Omluc3RhbmNlSUQ9InhtcC5paWQ6ZjdjZmU0MTgtOTMwOC00YzQ4LTg5NjAtMzM3ODgzZjU1ZjZmIgogICAgICBzdEV2dDpzb2Z0d2FyZUFnZW50PSJHaW1wIDIuMTAgKExpbnV4KSIKICAgICAgc3RFdnQ6d2hlbj0iMjAyMy0xMS0wM1QxMjo0ODo0NyswMDowMCIvPgogICAgPC9yZGY6U2VxPgogICA8L3htcE1NOkhpc3Rvcnk+CiAgPC9yZGY6RGVzY3JpcHRpb24+CiA8L3JkZjpSREY+CjwveDp4bXBtZXRhPgogICAgICAgICAgICAgICAgICAgICAgICAgICAgICAgICAgICAgICAgICAgICAgICAgICAgICAgICAgICAgICAgICAgICAgICAgICAgICAgICAgICAgICAgICAgICAgICAgICAgCiAgICAgICAgICAgICAgICAgICAgICAgICAgICAgICAgICAgICAgICAgICAgICAgICAgICAgICAgICAgICAgICAgICAgICAgICAgICAgICAgICAgICAgICAgICAgICAgICAgICAKICAgICAgICAgICAgICAgICAgICAgICAgICAgICAgICAgICAgICAgICAgICAgICAgICAgICAgICAgICAgICAgICAgICAgICAgICAgICAgICAgICAgICAgICAgICAgICAgICAgIAogICAgICAgICAgICAgICAgICAgICAgICAgICAgICAgICAgICAgICAgICAgICAgICAgICAgICAgICAgICAgICAgICAgICAgICAgICAgICAgICAgICAgICAgICAgICAgICAgICAgCiAgICAgICAgICAgICAgICAgICAgICAgICAgICAgICAgICAgICAgICAgICAgICAgICAgICAgICAgICAgICAgICAgICAgICAgICAgICAgICAgICAgICAgICAgICAgICAgICAgICAKICAgICAgICAgICAgICAgICAgICAgICAgICAgICAgICAgICAgICAgICAgICAgICAgICAgICAgICAgICAgICAgICAgICAgICAgICAgICAgICAgICAgICAgICAgICAgICAgICAgIAogICAgICAgICAgICAgICAgICAgICAgICAgICAgICAgICAgICAgICAgICAgICAgICAgICAgICAgICAgICAgICAgICAgICAgICAgICAgICAgICAgICAgICAgICAgICAgICAgICAgCiAgICAgICAgICAgICAgICAgICAgICAgICAgICAgICAgICAgICAgICAgICAgICAgICAgICAgICAgICAgICAgICAgICAgICAgICAgICAgICAgICAgICAgICAgICAgICAgICAgICAKICAgICAgICAgICAgICAgICAgICAgICAgICAgICAgICAgICAgICAgICAgICAgICAgICAgICAgICAgICAgICAgICAgICAgICAgICAgICAgICAgICAgICAgICAgICAgICAgICAgIAogICAgICAgICAgICAgICAgICAgICAgICAgICAgICAgICAgICAgICAgICAgICAgICAgICAgICAgICAgICAgICAgICAgICAgICAgICAgICAgICAgICAgICAgICAgICAgICAgICAgCiAgICAgICAgICAgICAgICAgICAgICAgICAgICAgICAgICAgICAgICAgICAgICAgICAgICAgICAgICAgICAgICAgICAgICAgICAgICAgICAgICAgICAgICAgICAgICAgICAgICAKICAgICAgICAgICAgICAgICAgICAgICAgICAgICAgICAgICAgICAgICAgICAgICAgICAgICAgICAgICAgICAgICAgICAgICAgICAgICAgICAgICAgICAgICAgICAgICAgICAgIAogICAgICAgICAgICAgICAgICAgICAgICAgICAgICAgICAgICAgICAgICAgICAgICAgICAgICAgICAgICAgICAgICAgICAgICAgICAgICAgICAgICAgICAgICAgICAgICAgICAgCiAgICAgICAgICAgICAgICAgICAgICAgICAgICAgICAgICAgICAgICAgICAgICAgICAgICAgICAgICAgICAgICAgICAgICAgICAgICAgICAgICAgICAgICAgICAgICAgICAgICAKICAgICAgICAgICAgICAgICAgICAgICAgICAgICAgICAgICAgICAgICAgICAgICAgICAgICAgICAgICAgICAgICAgICAgICAgICAgICAgICAgICAgICAgICAgICAgICAgICAgIAogICAgICAgICAgICAgICAgICAgICAgICAgICAgICAgICAgICAgICAgICAgICAgICAgICAgICAgICAgICAgICAgICAgICAgICAgICAgICAgICAgICAgICAgICAgICAgICAgICAgCiAgICAgICAgICAgICAgICAgICAgICAgICAgICAgICAgICAgICAgICAgICAgICAgICAgICAgICAgICAgICAgICAgICAgICAgICAgICAgICAgICAgICAgICAgICAgICAgICAgICAKICAgICAgICAgICAgICAgICAgICAgICAgICAgICAgICAgICAgICAgICAgICAgICAgICAgICAgICAgICAgICAgICAgICAgICAgICAgICAgICAgICAgICAgICAgICAgICAgICAgIAogICAgICAgICAgICAgICAgICAgICAgICAgICAgICAgICAgICAgICAgICAgICAgICAgICAgICAgICAgICAgICAgICAgICAgICAgICAgICAgICAgICAgICAgICAgICAgICAgICAgCiAgICAgICAgICAgICAgICAgICAgICAgICAgICAgICAgICAgICAgICAgICAgICAgICAgICAgICAgICAgICAgICAgICAgICAgICAgICAgICAgICAgICAgICAgICAgICAgICAgICAKICAgICAgICAgICAgICAgICAgICAgICAgICAgCjw/eHBhY2tldCBlbmQ9InciPz4/3D9dAAAABmJLR0QAAAAAAAD5Q7t/AAAACXBIWXMAAA7EAAAOxAGVKw4bAAAAB3RJTUUH5wsDDDAv333tqwAAEgxJREFUeNrt3WtwXOV9wOF3pSPLK1uyJdlGxgj5FhJijB2akBJbCZOGQAGHISEzMMw4aZsU2rQTc8kkFGeq6bhDCQNpSpPSTIdLmmmTDk0LNpQM7bQJQ1MgBJdbSTD4hkG+SbJkayV7pe0HKDWaUuRWZ3Xes88zfJHB7+75v7vSjz27R4VKpRIAAMi8crmcJMnxf1JnKAAAkVJyAABKDgAAJQcAwGQkE74ujfY33dRqLgAAWfNX5/70inN/+fg/8ZocAECslBwAgJIDAEDJAQCg5AAAlBwAAEoOAAAlBwCg5AAAUHIAACg5AACUHACAkgMAQMkBAKDkAACUHAAASg4AACUHAICSAwBQcgAAKDkAAJQcAICSAwBAyQEAoOQAAFByAABKDgAAJQcAgJIDAFByAAAoOQAAlBwAAEoOAEDJAQCg5AAAUHIAAEoOAAAlBwCAkgMAQMkBACg5AACUHAAASg4AQMkBAKDkAABQcgAAKDkAACUHAICSAwBAyQEAKDkAAJQcAABKDgAAJQcAoOQAAMiCJOp7f/HcIVsYi1K5PoRQTMaMIjf6RhvaGo+ZQ548Njjrgy1HzMGTtNZsGWhWctPg9Iby5g3NHn+xKJfLIYQkSYwiP3VeKhWLnoO50tvb29HRYQ6epLVmz8F/P+X2VZHeeWdXAQBipeQAAJQcAABKDgAAJQcAoOQAAFByAAAoOQAAJQcAgJIDAEDJAQCg5AAAlBwAAEoOAAAlBwCg5AAAUHIAACg5AACUHACAkgMAQMkBAKDkAACUHAAASg4AACUHAICSAwBQcgAAKDkAAJQcAICSAwBAyQEAoOQAAFByAABKDgAAJQcAgJIDAFByAAAoOQAAlBwAAEoOAEDJAQCg5AAAUHIAAEoOAAAlBwCAkgMAQMkBACg5AACUHAAASg4AQMkBAKDkAABQcgAAKDkAACUHAICSAwBAyQEA1J6kXC4f//WEL7NseLwQ0b3FZuVyT21rzoyPj9vTPBkbG7OhkxxULHd1cLg4YU+9JgcAEKskSZK3fD2WxHLXm+oqE+48UTzgDCFX3z5saL7U1dXZ0zypr6+3oZMcVCx3taWpNGFPvSYHABDt/1QbQVxe6n1kw/dWT/my3/lcX+vsrhzP7bp79vyiv2Vq1/yVZbs2rFsxhQtuffner95/fkRT7RttaGscyt+j5RuXP720Y80J/ZWDgy9/9s75OTj2xwYXfLAl4j1dNb9v05VT+a3smR33/d7ffzTegQweTa7p/vEZiyutszrbW5b6Gfp2CoWCkqNKrrz77MdGGqf+R/Lhrfkuudu2L5ryNbc8uWLDuqlc8H3fuSy+yZZm5vDh8r0zN284sb9xYOjlLQM5+TG5ZaA56ju/aUoXPPPuS2Lf0B//8MMT/mTTim1Xfnj/ye2rZiRNfqq+2XJKDgCIwMbnlm98bvmbXz58yUNrz/jQzIaW2p5KJd677n1yAFC7zrvvguIfthR6wrM7N5fHRmp1DF6TAwBitvKuN94v8tLVjy7p+FAh5rg5UZXKeLx33mtyAMB/W3bHmrqewvO7HjQKJQcARGnFnRcWesLLvY/WwsEWChHnkJIDAP5ny+5YU+gJr/U9m+/DdHYVAMitk//kjEJPGBzuzesBRn09OSUHALyzOV/r+NEzD+Ty0CoVVyEBAPLu3L+9qNATSqP9OTsur8kBALWi6abWvqEdeToir8kBADWk/dbFu/Y/YQ5KDgCIUtc3P/DMzvvNQckBAFE6865PrL15xByUHAAQpUdLMws90R+FKwMDALUr9phzZWAAoKZdd88eQ1ByAECUbtu+6IVXfmgOSg4AiNLpf3H+wJHd5qDkAIAotd7SWR4fNQclBwBEqeEPGg1ByQEAsXrx1X8xhKpJjAAAqmbTim1XdO9NY+WRo4d275/xD0+vuH3nwum9qMZp3z536Cv7Z8+cH8umRH09OSUHWfHU+nu/ev/5GbxjWwaa01i2LoQL5w5l8Hi/cfnTIaw5ob8yr3npxZk8lpT2LoSQzeNdNb8vhK6MP9Ov6O5d2rE2pcXfe2o4/5fCH//Xl32HXn114MlVd62rftg1/9H8So/v60oOasnqpZdt3pDJ/1tN59vxvuu2tzcvyeRWrDnRv9DesjSbe7dj70+W/Nk5U77s4vqxzRuaM7l3zdl/pldCpWq3VZzRekbXurGeUKmMP7frgZV3ravmke7c93jXgrOj+PbrysAAQHYVCnVndK2r9IRdX/hp1W508bfOHhs/ZvhKDgByFFWhMI233jn//ZWesPt3fladm/vzh16IpXSVHADwzqp5dvXtnDLvrCM39FXhhr7w+Mry2EgEm+LsKgAwGdP7mtybmhrbqvOJhC/efSiCTfGaHAAQnUpPeFcylupNfGv3SaPHDhu1kgMApt4vNtZf2jqY6k38/vf7zVnJAUAeZOF9chP84Istqa5/87bO8Uo505vifXIAwGRk5H1yE1OmJ931n9lxX6Y3xfvkAICo9X/plfQWX33Pp0xYyQFA9DJ4dvV1c2ed8jcfezS99Q8Obc/upji7CgDE7tNr16S3+OfvbM/sgRcKhXh3TckBAG945Xe3prTy3/W3ZPaoK5VKvFum5ACANyxqX53e4r39z5uwkgMAUrT/2m0prXzL/XOyecjOrgIAOTGvZXlKK9+2fVE2D9nZVQAgP5779QdTWvloedh4lRwAxCqbVwae4L2nXpjSytv3/msWN8WVgQGAycjs9eSq4zN/2Z3FTXE9OQAgT37++X9KY9nHRhrNVskBAOlaunBtSiuPjR8zXiUHAKQoqUvrxbP9h17M2sG6CgkAkDe/tvBAGsvuHXgha0fqKiQAQN5svOTnaSx71fcvMlslBwCkq3P+WWks60MPSg4AYhXF9eRe11BfrJVNcT05AGAyavx6chndFNeTAwDyZ01xJI1lD4/sN1slBwCk6/ZPb05j2YHDr5itkgOA+ET0PrkQQnvz4jSWPTT8arY2xfvkAIDJiOt9ck2NbWks++Ke5mxtivfJAQD5Myudknv4+XebrZIDANJVbGxNY9kHX51ntkoOAOIT1/vkUrJjrD5bm+J9cgDAZLieXBY3xfvkAABQcgAAKDkAACUHAEwVn3jI4qb4xAMAMBk+8ZDFTfGJBwAAlBwAAEoOALLH++SyuCneJwcATIb3yWVxU7xPDgDQnZPUVpCzSg4AIhTX2dWR0YE0lv3I3KFsbYqzqwDAZMR1dnVoZF8ay1619vFsbYqzqwBA/gwc3pPGsks65IeSAwBS9uDPTkpj2TmzFpqtkgMA0nXNkyvSKblFZqvkAIAozWxoMQQlBwDxcWXgLG6Kz64CAJMR0WdXB47srpVN8dlVACBndu57Io1lf3PRPrNVcgBAulbf88k0lr3uwmfNVskBAFE6dcH7DUHJAQAp2jvwQkor++CqkgMA0nXNdzsMQckBAFH66wNz01j2tzv3ZvBgC4WILw2j5ACAt9i1/4mUVr7x0ix+cLVSqcS7WUoOAHiLrm9+IKWVT25babxKDgBilf3f8XBk5EDNbYrf8QAATEb2f8dD+83zUlr5qfX3ZnRT/I4HACAHBodfG00tNd/T+XETnnKJEUS2YYVUnmHL7+j2YAOogoyfXZ3ztYXpLZ7ZK8k5u0r1lCsFQwCIV5bPru45uDW9xbd+5gfZ3RRnVwGAqI1Xxk65fXV6669c/AlDVnIAELfMnl39+n0vprd4c6FSV8jue2ycXQUAJiWbZ1dfOfDU9Vvfk97626/dkelNcXYVAIjUoSN7Ov/0faneRHvzkixPwG/rAgAmFw0ZO7taGu2fe8uiVG/ixat+FMG2KDkA4B1l6uxqabS/6abWtG9l+cKPZH1TnF0FAOIyOPxaFTIuhhfknF0FAKLy3K4HUr0I8Juy/4JcCKFSqcS7lS67DwDVM+3vkxs4srv1ls4QLqrCbW27+pEQuiPYlJivQqLkAKAmjBwbPPfWxsdGOqt2i8s6uo1dyQFAfkzLJx4ODm2fd+uSEKr6a0+Hb+gPoTWOTYn5Ew9KDgCqp2pnVw8MvrR739NnfffSEEII1b6c29Ofva/YeEk0m+LsKgAwGcvuWHvx3KEpX7Y8XvePg7PKb72pEJZN12GuXHyJvVZyAJBDWwaa832Ag1/eF8KCqO5yxJ9ddRUSAGDKbP+tnzQX48q4uK9CouQAgKlx47t2Lj7pHHNQcgBAfDZd2WUISg4AiM/RjcOGoOQAgPj0Xb+rIWkyByUHAMSXca2zTzUHJQcAyDhOgOvJxbZhhbQ+KZ3GlSqPVyrXhxCKydi0zC33V28CkHFKjgiUK6n8mpdtVz+S9u85LpfLIYQkmZ6HXKHHYwdgig18ac+cWTJOyQEAsTm6cbghWWQO08775ACAE3DFvIFKT/BJ1YzwmhwAMFnP/8ZDp3dekLODKhQK8d55JQcATMqRGw42NV6Qv+OK+veuKjkA4B288LmH333KeSG0G4WSAwBiUrpxcGbDeTk+QGdXAYAc6rt+Z+vsrhBa8n2Yzq4CALmy/9pt81qWh9BlFEoOAIjDl5fvvuGT9XOaTg5huWkoOQAgAusX9H19/VDb7K4QOmvw8AuFiC+vq+QAoEY9tf7e0xZ9tKmxLYTX/6lRlcq4kgMAsm79gr5rf/Wf58857eS2lSGEEC4zk+A1OQBgkjat2HZF9940o6TQUD+zISnOSJrGynUts9tmJLOO+/dtIXzKLuSJkgOA6rm8+7WlHd3Vua1SqTQjKZr5O4r67Gqd/QMAUHIAACg5AACUHACAkgMAQMkBAKDkAACUHAAASg4AACUHAICSAwBQcgAAKDkAAJQcAICSAwBAyQEAoOQAAFByAABKDgAAJQcAgJIDAFByAAAoOQAAlBwAAP+rpFQqHf/1yNGRWO76wbG6CXe+Fhwsz0hj2dHR0bSHOTY2FkKor6+fpskV01i0Zh6BqUxvZGSklNTcU7jKRkdHU/lGNF7nwZ/l77dpPwA8U6bR3v7mCY+fpFh868O0LpqSa68fn3jna0B7MrqtPPUx1NjYmPYwy+VyCCFJklx9j6+9R+AUmjlzpgGmrbGxMZVvRHXj9i7L3299mzrhTRlujOWuntQ6NGFPnV0FAIiVkgMAUHIAACg5AACUHACAkgMAQMkBAKDkAACUHAAASg4AACUHAICSAwBQcgAAKDkAAJQcAICSAwBAyQEAoOQAAFByAABKDgAAJQcAgJIDAFByAAAoOQAAlBwAAEoOAEDJAQCg5AAAUHIAAEoOAAAlBwCAkgMAQMkBACg5AACUHAAASg4AQMkBAKDkAABQcgAAKDkAACUHAICSAwBAyQEAKDkAAJQcAABKDgAAJQcAoOQAAFByAAAoOQAAJQcAgJIDACBtiRHE5d++0pjOwt35nlulx2Nn6qdXKpWKxeL/Y+ElZpu2xSedc0IP/t7e3o6Ojkn8h/U1/uD3/Zbs8JocAICSAwBAyQEAoOQAAJQcAABKDgAAJQcAoOQAAFByAAAoOQAAlBwAgJIDAEDJAQCg5AAAlBwAAEoOAAAlBwCAkgMAUHIAACg5AACUHACAkgMAQMkBAKDkAABQcgAASg4AACUHAICSAwBQcgAAKDkAAJQcAABKDgBAyQEAoOQAAFByAABKDgAAJQcAgJIDAEDJAQAoOQAAlBwAAEoOAEDJAQCg5AAAUHIAALydJN67/h/HkkKPHfRgYxoVjSB3OozAk7QmrYr3rntNDgBAyQEAoOQAAFByAABKDgAAJQcAgJIDAFByAAAoOQAAlBwAAEoOAEDJAQCg5AAAUHIAAEoOAAAlBwCAkgMAQMkBACg5AACUHAAASg4AQMkBAKDkAABQcgAAKDkAACUHAICSAwBAyQEAKDkAAJQcAABKDgAAJQcAoOQAAFByAAAoOQAAJQcAgJIDAEDJAQCg5AAAlBwAAEoOAAAlBwCg5AAAUHIAACg5AACUHACAkgMAQMkBAKDkAACUHAAASg4AACUHAICSAwBQcgAAKDkAAP7vkt7e3uO/Lo+PfGx2w/Tep31HZ7xWTkqVQrFQsUO5Ua4UQgiJPc0RT9L82T9eN79u3Bw8ScnsT9LTOw5PKLdCpZLRPS6VSsVi0bbl5/FXLocQkiQxivz8kPAkzZ3e3t6Ojg5z8CQlop+kzq4CAMRKyQEAKDkAAKrrPwEwM4DQ4hLZGQAAAABJRU5ErkJggg==;fontFamily=JetBrains Mono;fontSource=https%3A%2F%2Ffonts.googleapis.com%2Fcss%3Ffamily%3DJetBrains%2BMono;" vertex="1" parent="1">
          <mxGeometry x="397" y="155" width="30" height="15.7" as="geometry" />
        </mxCell>
        <mxCell id="4w2omp_RsOo7fkGFhtTQ-59" value="&lt;font style=&quot;font-size: 16px;&quot;&gt;Database&lt;/font&gt;" style="text;html=1;align=center;verticalAlign=middle;resizable=0;points=[];autosize=1;strokeColor=none;fillColor=none;fontFamily=JetBrains Mono;fontSource=https%3A%2F%2Ffonts.googleapis.com%2Fcss%3Ffamily%3DJetBrains%2BMono;" vertex="1" parent="1">
          <mxGeometry x="71" y="415" width="90" height="30" as="geometry" />
        </mxCell>
        <mxCell id="4w2omp_RsOo7fkGFhtTQ-31" value="" style="sketch=0;outlineConnect=0;fontColor=#232F3E;gradientColor=none;fillColor=#67AB9F;strokeColor=none;dashed=0;verticalLabelPosition=bottom;verticalAlign=top;align=center;html=1;fontSize=12;fontStyle=0;aspect=fixed;pointerEvents=1;shape=mxgraph.aws4.camera;fontFamily=JetBrains Mono;fontSource=https%3A%2F%2Ffonts.googleapis.com%2Fcss%3Ffamily%3DJetBrains%2BMono;" vertex="1" parent="1">
          <mxGeometry x="382.5" y="568" width="60" height="60" as="geometry" />
        </mxCell>
        <mxCell id="4w2omp_RsOo7fkGFhtTQ-32" value="" style="whiteSpace=wrap;html=1;strokeColor=none;fontFamily=JetBrains Mono;fontSource=https%3A%2F%2Ffonts.googleapis.com%2Fcss%3Ffamily%3DJetBrains%2BMono;" vertex="1" parent="1">
          <mxGeometry x="392.5" y="578" width="40" height="40" as="geometry" />
        </mxCell>
        <mxCell id="4w2omp_RsOo7fkGFhtTQ-30" value="" style="sketch=0;pointerEvents=1;shadow=0;dashed=0;html=1;strokeColor=none;fillColor=#67AB9F;labelPosition=center;verticalLabelPosition=bottom;verticalAlign=top;outlineConnect=0;align=center;shape=mxgraph.office.concepts.clock;direction=east;fontFamily=JetBrains Mono;fontSource=https%3A%2F%2Ffonts.googleapis.com%2Fcss%3Ffamily%3DJetBrains%2BMono;" vertex="1" parent="1">
          <mxGeometry x="396.25" y="581.75" width="32.5" height="32.5" as="geometry" />
        </mxCell>
        <mxCell id="4w2omp_RsOo7fkGFhtTQ-67" value="" style="endArrow=classic;html=1;rounded=1;entryX=1.009;entryY=0.717;entryDx=0;entryDy=0;entryPerimeter=0;strokeWidth=2;startArrow=classic;startFill=1;strokeColor=#007FFF;" edge="1" parent="1">
          <mxGeometry width="50" height="50" relative="1" as="geometry">
            <mxPoint x="506" y="170" as="sourcePoint" />
            <mxPoint x="447.6199999999999" y="192.30399999999997" as="targetPoint" />
            <Array as="points">
              <mxPoint x="476" y="170" />
              <mxPoint x="466" y="192" />
            </Array>
          </mxGeometry>
        </mxCell>
        <mxCell id="4w2omp_RsOo7fkGFhtTQ-68" value="" style="endArrow=classic;html=1;entryX=1.007;entryY=0.341;entryDx=0;entryDy=0;entryPerimeter=0;startArrow=classic;startFill=1;strokeColor=#007FFF;rounded=1;strokeWidth=2;" edge="1" parent="1">
          <mxGeometry width="50" height="50" relative="1" as="geometry">
            <mxPoint x="506" y="170" as="sourcePoint" />
            <mxPoint x="447.26" y="150.1919999999999" as="targetPoint" />
            <Array as="points">
              <mxPoint x="476" y="170" />
              <mxPoint x="466" y="150" />
            </Array>
          </mxGeometry>
        </mxCell>
      </root>
    </mxGraphModel>
  </diagram>
</mxfile>
